<?xml version='1.0' encoding='utf-8'?>
<svg xmlns="http://www.w3.org/2000/svg" version="1.1" id="svg2" x="0px" y="0px" viewBox="0 0 1187.3 1186" style="enable-background:new 0 0 1187.3 1186;"><metadata id="metadata332"/><defs id="defs330"/><style type="text/css" id="style2"> .st0{fill:#FDD1A1;stroke:#664e2b;stroke-width:7;stroke-linecap:round;stroke-linejoin:round;} .st1{fill:none;stroke:#FFCC99;stroke-width:2;stroke-linecap:round;stroke-linejoin:round;} .st2{fill:none;stroke:#FF4C80;stroke-width:2;stroke-linecap:round;stroke-linejoin:round;} .st3{fill:none;stroke:#00B26B;stroke-width:2;stroke-linecap:round;stroke-linejoin:round;} .st4{fill:none;stroke:#664e2b;stroke-width:7;stroke-linecap:round;stroke-linejoin:round;} .st5{fill:none;stroke:#AA4400;stroke-width:7;stroke-linecap:round;stroke-linejoin:round;} .st6{fill:#FF4C80;stroke:#664e2b;stroke-width:7;stroke-linecap:round;stroke-linejoin:round;} .st7{stroke:#664e2b;stroke-width:7;stroke-linecap:round;} .st8{fill:#00A859;stroke:#664e2b;stroke-width:7;stroke-linecap:round;stroke-linejoin:round;} .st9{fill:none;stroke:#804C80;stroke-width:2;stroke-linecap:round;stroke-linejoin:round;} .st10{fill:none;stroke:#A4CC52;stroke-width:2;stroke-linecap:round;stroke-linejoin:round;} .st11{fill:#FFCC99;stroke:#664e2b;stroke-width:7;stroke-linecap:round;stroke-linejoin:round;} .st12{fill:none;stroke:#664e2b;stroke-width:7;} .st13{fill:none;stroke:#7A8FCC;stroke-width:2;stroke-linecap:round;stroke-linejoin:round;} .st14{fill:none;stroke:#FF4D33;stroke-width:2;stroke-linecap:round;stroke-linejoin:round;} .st15{fill:none;stroke:#CB7A47;stroke-width:2;stroke-linecap:round;stroke-linejoin:round;} .st16{fill:#804080;stroke:#664e2b;stroke-width:7;} .st17{fill:#CB7A47;stroke:#664e2b;stroke-width:7;stroke-linecap:round;stroke-linejoin:round;} .st18{stroke:#664e2b;stroke-width:7;} .st19{fill:none;stroke:#FF4D4D;stroke-width:2;stroke-linecap:round;stroke-linejoin:round;} .st20{fill:none;stroke:#FFB200;stroke-width:7;stroke-linecap:round;stroke-linejoin:round;} .st21{fill:#FFFFFF;stroke:#664e2b;stroke-width:7;stroke-linecap:round;stroke-linejoin:round;} .st22{fill:#FEFEFE;stroke:#664e2b;stroke-width:7;} .st23{fill:#ED3237;stroke:#664e2b;stroke-width:7;stroke-linecap:round;stroke-linejoin:round;} .st24{fill:none;stroke:#7B8FCC;stroke-width:2;stroke-linecap:round;stroke-linejoin:round;} .st25{fill:none;stroke:#FFCC33;stroke-width:2;stroke-linecap:round;stroke-linejoin:round;} .st26{fill:#CC7B51;stroke:#664e2b;stroke-width:7;stroke-linecap:round;stroke-linejoin:round;} .st27{fill:none;stroke:#663E33;stroke-width:2;stroke-linecap:round;stroke-linejoin:round;} .st28{fill:none;stroke:#FF3F40;stroke-width:2;stroke-linecap:round;stroke-linejoin:round;} .st29{fill:none;stroke:#AEADB3;stroke-width:2;stroke-linecap:round;stroke-linejoin:round;} .st30{fill:#AEADB3;stroke:#664e2b;stroke-width:7;stroke-linecap:round;stroke-linejoin:round;} .st31{stroke:#664e2b;stroke-width:7;stroke-linecap:round;stroke-linejoin:round;} .st32{fill:#333030;stroke:#664e2b;stroke-width:7;stroke-linecap:round;stroke-linejoin:round;} .st33{fill:#FEFEFE;stroke:#664e2b;stroke-width:7;stroke-linecap:round;stroke-linejoin:round;} </style><g id="g1226"><path id="_193716144" class="st0" d="m 139.7,364.4 c -5.3,0 -9.6,3.5 -9.6,7.9 0,4.4 4.3,7.9 9.6,7.9 1.7,0 3.3,-0.4 4.6,-1 -1.1,-4.6 -1.9,-9.4 -2.3,-14.6 -0.7,-0.1 -1.5,-0.2 -2.3,-0.2 z" style="fill:#fdd1a1;stroke:#664e2b;stroke-width:7;stroke-linecap:round;stroke-linejoin:round"/><path style="fill:none;stroke:#ffcc99;stroke-width:2;stroke-linecap:round;stroke-linejoin:round" id="path6" d="m 151.8,337.3 c 1,1 25,-27.1 26,-26 0.8,0.8 -30.2,35.9 -29.4,36.7 1.4,1.4 40.9,-43.7 42.3,-42.3 1.3,1.3 -41.9,47.5 -41,48.5 1.7,1.7 48.8,-51.6 50.2,-50.2 1.6,1.6 -51.2,55 -49.9,56.4 1.5,1.5 57.1,-61.1 59.1,-59.1 1.4,1.4 -60.5,65.4 -59.2,66.7 2,2 65.3,-70 67.7,-67.7 1.4,1.4 -67.2,70.2 -65.4,71.9 2.3,2.3 69.2,-73.7 71.4,-71.4 1.5,1.5 -71.1,74.6 -69.4,76.3 2.3,2.3 74.9,-79.3 77.1,-77.1 1.6,1.6 -77.4,80.8 -75.8,82.4 2.4,2.4 80,-85 82.5,-82.5 1.9,1.9 -82.9,85.1 -80.6,87.4 2.7,2.7 82.6,-87.3 84.9,-84.9 1.9,1.9 -84.7,87.6 -83,89.4 2.6,2.6 86.8,-91.3 89,-89 1.9,1.9 -88.2,90.3 -85.8,92.7 2.5,2.5 89.4,-95.8 92.6,-92.6 2,2 -93.6,96.2 -91.7,98.2 2.8,2.8 93.6,-98.1 95.8,-95.8 2.5,2.5 -94.7,96.2 -92,98.9 2.9,2.9 94.5,-99.5 97,-97 2.2,2.2 -95.5,98 -93.5,100 2.6,2.6 97,-101.6 99.3,-99.3 2.7,2.7 -97.2,99.6 -94.9,101.9 2.6,2.6 96.6,-102.6 99.6,-99.6 2.4,2.4 -98.8,99.6 -96,102.4 2.4,2.4 96.4,-102.8 99.6,-99.6 2.2,2.2 -99.4,101.5 -97.2,103.7 2.6,2.6 98.3,-104.1 101.2,-101.2 2.3,2.3 -97.5,99.2 -94.8,101.9 3.2,3.2 95,-99.7 97.4,-97.4 2,2 -95.6,98.1 -93.1,100.6 2.5,2.5 94.7,-101.2 98,-98 2.5,2.5 -96.9,100.2 -94.8,102.2 2.8,2.8 94.4,-99.4 96.9,-96.9 2.3,2.3 -94.6,96 -91.8,98.8 2.5,2.5 92.9,-99.2 96,-96 2.8,2.8 -91.6,94.7 -89.6,96.7 2.4,2.4 88.5,-93.6 91,-91 2.1,2.1 -87.3,90.1 -85.1,92.2 2.9,2.9 85.4,-91.4 88.4,-88.4 1.8,1.8 -83.6,87.2 -81.7,89.1 2.9,2.9 81.1,-85.7 83.4,-83.4 1.7,1.7 -80.5,82.4 -78.1,84.8 2.4,2.4 76.1,-81.4 78.8,-78.8 2.1,2.1 -75.2,77.4 -73,79.6 2.3,2.3 71.5,-76.6 74.1,-74.1 1.6,1.6 -67.2,70.6 -65.2,72.6 2,2 64.3,-67.6 66,-66 1.6,1.6 -60.2,64.1 -58.6,65.6 2,2 57.2,-61.4 59.3,-59.3 1.3,1.3 -49.9,54.9 -48.5,56.3 1.6,1.6 46.1,-49.4 47.8,-47.8 1.2,1.2 -39.6,44.1 -38.6,45.1 1.1,1.1 35.9,-38 36.9,-36.9 0.6,0.6 -24.6,31 -24,31.7 0.9,0.9 19.5,-21.1 20.3,-20.3" class="st1"/><path style="fill:none;stroke:#ff4c80;stroke-width:2;stroke-linecap:round;stroke-linejoin:round" id="path9" d="m 155.8,272.9 c 0.8,0.8 19.3,-20.9 20.1,-20.1 0.5,0.5 -16.1,22 -15.7,22.5 0.7,0.7 17.5,-19.1 18.3,-18.3 0.5,0.5 -15.4,21.6 -15,22.1 0.9,0.9 15.6,-17.3 16.4,-16.4 0.4,0.4 -15.2,20.7 -14.7,21.2 0.8,0.8 17.1,-18.8 18,-18 0.4,0.4 -15.8,21.8 -15.3,22.3 0.8,0.8 16.5,-18.2 17.3,-17.3 0.5,0.5 -15.4,20.8 -14.8,21.3 0.8,0.8 15,-16.8 15.9,-15.9 0.5,0.5 -16.2,21.8 -15.7,22.3 0.8,0.8 18.6,-20.1 19.4,-19.4 0.4,0.4 -15.2,21.7 -14.8,22.1 0.8,0.8 16.1,-17.8 16.9,-16.9 0.4,0.4 -14.9,20.7 -14.5,21.1 0.6,0.6 16,-17.4 16.7,-16.7 0.2,0.2 -1.5,8.3 -1.4,8.5 0.4,0.4 6,-6.8 6.4,-6.4" class="st2"/><path style="fill:none;stroke:#ff4c80;stroke-width:2;stroke-linecap:round;stroke-linejoin:round" id="path12" d="m 280.6,250.2 c 0.3,0.3 -0.3,-0.4 0,0 0.3,0.2 -8.4,15.5 -8.1,15.8 0.5,0.5 9.9,-11.1 10.5,-10.5 0.5,0.5 -18.1,24.6 -17.7,25 1,1 22,-23.8 22.9,-22.9 0.8,0.8 -24.2,30.5 -23.6,31.1 0.8,0.8 24.4,-26.7 25.6,-25.6 0.5,0.5 -18.4,24.9 -17.8,25.5 1,1 23.2,-25.4 24.3,-24.3 0.6,0.6 -21.6,27.2 -20.9,27.9 1.1,1.1 21,-23.1 22.1,-22.1 0.5,0.5 -15.1,22 -14.7,22.4 0.6,0.6 11.8,-13.4 12.6,-12.6" class="st2"/><path style="fill:none;stroke:#ff4c80;stroke-width:2;stroke-linecap:round;stroke-linejoin:round" id="path15" d="m 154.8,178.1 c 0.3,0.3 0,-0.8 0.4,-0.4 0.1,0.1 2.7,4.8 2.9,4.9 0.6,0.6 5.7,-6.8 6.3,-6.3 0.2,0.2 -5.6,12.6 -5.4,12.8 0.7,0.7 12.5,-13.9 13.2,-13.2 0.4,0.4 -8.7,15.7 -8.5,16 0.9,0.9 15.6,-16.9 16.3,-16.3 0.5,0.5 -15,21.2 -14.6,21.6 1,1 21.6,-23.6 22.6,-22.6 0.5,0.5 -20,25.7 -19.4,26.3 1,1 24.1,-26 25,-25 0.7,0.7 -24.8,30.2 -24,31 1.4,1.4 32.3,-34.7 33.5,-33.5 0.9,0.9 -29.9,36.3 -29.2,37 1.2,1.2 34.8,-37.5 36.1,-36.1 0.9,0.9 -35.5,40 -34.5,41 1.3,1.3 39.6,-42.6 41.1,-41.1 1.1,1.1 -38.2,43.5 -37.2,44.6 1.3,1.3 44.7,-47.5 46.1,-46.1 1.4,1.4 -46.3,51.3 -45.1,52.6 1.7,1.7 49.8,-53.5 51.6,-51.6 1.1,1.1 -50.5,54.4 -49,55.9 1.6,1.6 55.1,-58.3 56.7,-56.7 1.4,1.4 -56.1,60.4 -54.6,61.9 2.2,2.2 60.2,-64.1 62.2,-62.2 1.4,1.4 -59.3,63.6 -57.8,65.1 2,2 64.9,-69.4 67.2,-67.2 1.6,1.6 -66.9,70.4 -65.2,72.1 2,2 70.2,-74.4 72.3,-72.3 1.6,1.6 -71.9,75.5 -70.1,77.2 2,2 75.9,-80 77.9,-77.9 1.8,1.8 -76.8,79.2 -74.6,81.4 2.1,2.1 79.2,-83.6 81.4,-81.4 1.9,1.9 -80.2,82.8 -77.9,85.1 2.2,2.2 82.6,-87.3 84.9,-84.9 2,2 -84.8,87.4 -82.7,89.5 2.8,2.8 86,-91.6 88.8,-88.8 2.3,2.3 -88.6,90.3 -85.9,92.9 3.1,3.1 92.9,-98.8 95.8,-95.8 2.4,2.4 -97.2,99.3 -94.6,101.8 3.3,3.3 97.4,-102.6 100,-100 2,2 -100.8,101.6 -98,104.4 2.7,2.7 92.8,-97.9 95.3,-95.3 2.9,2.9 -95.7,97.5 -93.4,99.8 2.3,2.3 87.1,-91.6 89.4,-89.4 1.9,1.9 -87.4,89.1 -85,91.5 2.6,2.6 77.3,-81.6 79.5,-79.5 2,2 -79,83.4 -77.3,85.1 1.9,1.9 70.4,-75.5 73,-73 1.5,1.5 -72.6,75.1 -70.6,77.2 1.8,1.8 62.8,-65.9 64.3,-64.3 1.3,1.3 -55.9,60.1 -54.4,61.5 1.5,1.5 48.8,-51.9 50.4,-50.4 1.4,1.4 -44.5,48.6 -43.2,49.9 1.2,1.2 35.4,-38.4 36.9,-36.9 0.9,0.9 -30.7,36.1 -29.8,37 1.1,1.1 21.5,-23.3 22.4,-22.4 0.5,0.5 -16.4,22.8 -16,23.3 0.6,0.6 8.2,-9.3 8.8,-8.8" class="st2"/><path style="fill:none;stroke:#00b26b;stroke-width:2;stroke-linecap:round;stroke-linejoin:round" id="path18" d="m 260.1,111.7 c 0.6,0.6 7.6,-8.7 8.1,-8.1" class="st3"/><path style="fill:none;stroke:#00b26b;stroke-width:2;stroke-linecap:round;stroke-linejoin:round" id="path20" d="m 159.1,126.6 c 0.8,0.8 12,-13.6 12.8,-12.8 0.4,0.4 -10.3,17 -10,17.3 0.6,0.6 15,-16.7 15.9,-15.9 0.4,0.4 -12.1,18.8 -11.7,19.3 0.9,0.9 14.5,-16.2 15.4,-15.4 0.4,0.4 -12.1,18.3 -11.7,18.7 0.9,0.9 18,-19.6 18.8,-18.8 0.5,0.5 -15.6,22.1 -15.1,22.6 0.8,0.8 16.8,-18.7 17.8,-17.8 0.6,0.6 -17.5,23.3 -17,23.8 0.9,0.9 21,-22.9 21.9,-21.9 0.6,0.6 -19.2,25 -18.7,25.6 1,1 22.5,-24.6 23.6,-23.6 0.6,0.6 -19.7,25.8 -19.1,26.4 1.1,1.1 24.9,-26.6 25.8,-25.8 0.7,0.7 -22.6,28.8 -21.9,29.5 0.9,0.9 26.3,-28.7 27.5,-27.5 0.6,0.6 -25.8,31.4 -25,32.2 1.1,1.1 27.8,-29.9 28.9,-28.9 0.7,0.7 -21.7,27.2 -21,27.9 0.9,0.9 26.1,-27.9 27,-27 0.5,0.5 -18.6,24.5 -18,25.1 0.8,0.8 21.4,-23.1 22.3,-22.3 0.5,0.5 -14.4,21.3 -14,21.7 1,1 16.5,-18.4 17.4,-17.4 0.4,0.4 -11.1,17.4 -10.7,17.9 1.9,1.9 53.2,-56.6 54.9,-54.9 1.3,1.3 -49.5,53.9 -48.2,55.1 2,2 49.7,-53.7 51.7,-51.7 1.2,1.2 -44.5,49.4 -43.5,50.3 1.8,1.8 47.1,-50.9 49,-49 0.9,0.9 -42.6,47.8 -41.7,48.7 1.6,1.6 46.3,-49.9 48.1,-48.1 0.9,0.9 -41.4,46.1 -40.5,47 1.4,1.4 46.4,-49.4 47.9,-47.9 1.1,1.1 -42.8,47.7 -41.7,48.9 1.7,1.7 45.2,-48.3 46.7,-46.7 1.1,1.1 -39,43.9 -38.1,44.7 1.3,1.3 40.1,-42.9 41.5,-41.5 1,1 -35.4,40.4 -34.5,41.3 1,1 25.5,-27.4 26.5,-26.5 0.6,0.6 -21,26.9 -20.3,27.6 0.7,0.7 9.4,-10.5 10,-10" class="st3"/><path id="_193716384" class="st4" d="M 161.8,117.8 81,57.2 52.5,98.2" style="fill:none;stroke:#664e2b;stroke-width:7;stroke-linecap:round;stroke-linejoin:round"/><path id="_193704936" class="st4" d="M 301.7,102.9 355.6,19 402.4,40.7" style="fill:none;stroke:#664e2b;stroke-width:7;stroke-linecap:round;stroke-linejoin:round"/><path id="_193716336" class="st4" d="m 295.4,283.9 69.9,76.8 17.5,8.4" style="fill:none;stroke:#664e2b;stroke-width:7;stroke-linecap:round;stroke-linejoin:round"/><path id="_193715712" class="st4" d="M 165.5,305 94.2,382.9 76.6,397" style="fill:none;stroke:#664e2b;stroke-width:7;stroke-linecap:round;stroke-linejoin:round"/><path id="_193716240" class="st5" d="m 211.9,450.6 0.3,-11.9" style="fill:none;stroke:#aa4400;stroke-width:7;stroke-linecap:round;stroke-linejoin:round"/><path id="_193714272" class="st5" d="m 224.9,451.3 -0.3,-11.5" style="fill:none;stroke:#aa4400;stroke-width:7;stroke-linecap:round;stroke-linejoin:round"/><path id="_193705920" class="st5" d="m 240.9,449.6 -2,-12.4" style="fill:none;stroke:#aa4400;stroke-width:7;stroke-linecap:round;stroke-linejoin:round"/><path id="_193716216" class="st5" d="m 257.8,446.8 -3.1,-13.2" style="fill:none;stroke:#aa4400;stroke-width:7;stroke-linecap:round;stroke-linejoin:round"/><path id="_193716192" class="st5" d="m 272.9,442.4 -4.4,-13.2" style="fill:none;stroke:#aa4400;stroke-width:7;stroke-linecap:round;stroke-linejoin:round"/><path id="_193713936" class="st0" d="m 313.5,339.7 c -1.5,0 -3,0.3 -4.3,0.8 1.3,5.1 2.1,10.1 2.6,14.8 0.6,0.1 1.1,0.1 1.7,0.1 5.3,0 9.6,-3.5 9.6,-7.9 0,-4.4 -4.3,-7.8 -9.6,-7.8 z" style="fill:#fdd1a1;stroke:#664e2b;stroke-width:7;stroke-linecap:round;stroke-linejoin:round"/><path id="path1190" class="st6" d="m 315.2,160.8 v 0 h 1 z" style="fill:#ff4c80;stroke:#664e2b;stroke-width:7;stroke-linecap:round;stroke-linejoin:round"/><path id="path1194" class="st4" d="m 281.8,304.4 26.6,-40.3 -26.2,-23.9 -27,54.6 c 9.7,2 18.7,5.1 26.6,9.6 z" style="fill:none;stroke:#664e2b;stroke-width:7;stroke-linecap:round;stroke-linejoin:round"/><path id="path1188" class="st4" d="m 282.2,240.2 32.9,-79.3 -175.6,10.7 42.5,74.4 29.8,50 c 14.5,-2.9 29.6,-3.3 43.5,-0.8 z" style="fill:none;stroke:#664e2b;stroke-width:7;stroke-linecap:round;stroke-linejoin:round"/><path id="_193716048" class="st4" d="m 170,312.8 -20,-34.2 32,-32.6 29.8,50 c -15.3,3 -29.9,8.7 -41.8,16.8 z" style="fill:none;stroke:#664e2b;stroke-width:7;stroke-linecap:round;stroke-linejoin:round"/><path id="_193715856" class="st4" d="m 350.5,388.3 14.8,-27.6 25.9,-15.1" style="fill:none;stroke:#664e2b;stroke-width:7;stroke-linecap:round;stroke-linejoin:round"/><path id="_193704912" class="st4" d="m 389.9,359 -24.6,1.7 2.7,22.9" style="fill:none;stroke:#664e2b;stroke-width:7;stroke-linecap:round;stroke-linejoin:round"/><path id="_193714944" class="st4" d="M 112.3,404.1 94.1,382.9 72.9,372.5" style="fill:none;stroke:#664e2b;stroke-width:7;stroke-linecap:round;stroke-linejoin:round"/><path id="_193712712" class="st4" d="m 68.9,383.2 25.2,-0.3 -0.7,20.5" style="fill:none;stroke:#664e2b;stroke-width:7;stroke-linecap:round;stroke-linejoin:round"/><path id="_193716120" class="st4" d="m 308.8,338.8 c 30.6,114.1 -160.1,138.5 -166.9,23.9 -4.3,-72.3 146.6,-99.8 166.9,-23.9 z" style="fill:none;stroke:#664e2b;stroke-width:7;stroke-linecap:round;stroke-linejoin:round"/><path id="_193715544" class="st7" d="m 226,399 c 0,3 -2,5.4 -4.4,5.4 -2.4,0 -4.4,-2.4 -4.4,-5.4 0,-3 2,-5.4 4.4,-5.4 2.5,0.1 4.4,2.5 4.4,5.4 z" style="stroke:#664e2b;stroke-width:7;stroke-linecap:round"/><path id="_193715520" class="st7" d="m 248.2,396.7 c 0,3 -2,5.4 -4.4,5.4 -2.4,0 -4.4,-2.4 -4.4,-5.4 0,-3 2,-5.4 4.4,-5.4 2.5,0 4.4,2.4 4.4,5.4 z" style="stroke:#664e2b;stroke-width:7;stroke-linecap:round"/><path id="_193707168" class="st4" d="m 179.6,380.2 c 7.9,-80.7 93.7,-80 103,-2.7" style="fill:none;stroke:#664e2b;stroke-width:7;stroke-linecap:round;stroke-linejoin:round"/><path id="_193715688" class="st8" d="m 159.7,419.2 -16.2,20.5 22.6,1.5 c 0.1,-1.9 0.8,-3.6 2,-5 z m 42.1,19.5 -18.2,3.5 c -0.2,3.1 -2,5.8 -4.6,7.2 l 8.3,15.5 z" style="fill:#00a859;stroke:#664e2b;stroke-width:7;stroke-linecap:round;stroke-linejoin:round"/><path id="_193715736" class="st8" d="m 312.5,392.2 1.2,20.6 c 1,0.4 1.9,1 2.6,1.7 l 23.1,-11 z m -11.6,32.3 -22.4,7.6 26.9,15.5 -1,-19.2 c -1.5,-1 -2.8,-2.3 -3.5,-3.9 z" style="fill:#00a859;stroke:#664e2b;stroke-width:7;stroke-linecap:round;stroke-linejoin:round"/><path id="_193711272" class="st5" d="m 173.1,541.4 c -17.5,-28.8 -18.4,-59.8 -3.7,-94.4 -20.1,20.3 -27.2,49.8 -22.2,87.3" style="fill:none;stroke:#aa4400;stroke-width:7;stroke-linecap:round;stroke-linejoin:round"/><path id="_193715592" class="st5" d="m 134.1,520.5 c -1.2,-40.8 10.5,-65.8 35.3,-73.5 -1.7,31.9 5.4,57.2 24.6,76.6" style="fill:none;stroke:#aa4400;stroke-width:7;stroke-linecap:round;stroke-linejoin:round"/><path id="_193714968" class="st5" d="m 394.7,471.4 c -24,-16.3 -49.9,-31.5 -77.6,-45.1 20.1,18.6 38.1,38.1 54.7,61.5" style="fill:none;stroke:#aa4400;stroke-width:7;stroke-linecap:round;stroke-linejoin:round"/><path id="_193716552" class="st5" d="m 403.2,446.2 c -29.4,0.6 -57.7,-6.4 -86.1,-19.9 19.6,26.4 28,56.2 23.8,90.5" style="fill:none;stroke:#aa4400;stroke-width:7;stroke-linecap:round;stroke-linejoin:round"/><path id="_193711296" class="st4" d="m 149.7,131.6 24.2,-27.6 68.6,31 26.2,-39.7 46.1,10.8 -31.6,56.2 L 182,169 150.7,132.2 Z" style="fill:none;stroke:#664e2b;stroke-width:7;stroke-linecap:round;stroke-linejoin:round"/><path id="_192825200" class="st8" d="m 183.6,441.8 c 0,4.8 -3.9,8.7 -8.7,8.7 -4.8,0 -8.7,-3.9 -8.7,-8.7 0,-4.8 3.9,-8.7 8.7,-8.7 4.8,-0.1 8.7,3.8 8.7,8.7 z" style="fill:#00a859;stroke:#664e2b;stroke-width:7;stroke-linecap:round;stroke-linejoin:round"/><path id="_193171656" class="st8" d="m 319.2,420.8 c 0,4.9 -4.3,8.9 -9.6,8.9 -5.3,0 -9.6,-4 -9.6,-8.9 0,-4.9 4.3,-8.9 9.6,-8.9 5.3,0 9.6,4 9.6,8.9 z" style="fill:#00a859;stroke:#664e2b;stroke-width:7;stroke-linecap:round;stroke-linejoin:round"/></g><g id="g1411"><g id="_193714512_1_"><path class="st9" d="M521.9,976.4c0.4,0.4,3.2-4.3,3.7-3.7c0.2,0.2-3.4,10.2-3.2,10.5c0.6,0.6,10.5-11.7,11.1-11.1 c0.3,0.3-9,15.5-8.8,15.7c0.6,0.6,12.1-13.2,12.6-12.6c0.5,0.5-14.1,20.3-13.8,20.6c0.9,0.9,18.6-20,19.3-19.3 c0.5,0.5-16.8,22.8-16.4,23.2c0.9,0.9,21.8-23.8,22.8-22.8c0.5,0.5-23.5,29-22.8,29.7c0.9,0.9,28.2-30.1,29.1-29.1 c0.7,0.7-29,34.5-28.1,35.3c1,1,31.4-33.7,32.6-32.6c0.9,0.9-29.8,35.7-29,36.5c1.3,1.3,28.2-30.8,29.5-29.5 c0.6,0.6-22.4,28.3-21.8,28.8c0.8,0.8,20.7-22.5,21.6-21.6c0.5,0.5-14.4,20.6-14,20.9c0.8,0.8,13.1-14.2,13.6-13.6 c0.3,0.3-8.5,14.6-8.3,14.8c0.5,0.5,9-10.1,9.6-9.6c0.1,0.1-1.6,7.9-1.5,8c0.4,0.4-0.2-0.6,0.2-0.2" id="path55"/><path class="st9" d="M475.3,966.6c0.5,0.5,1.7-2.8,2.2-2.2c0.2,0.2-5.4,11.5-5.1,11.8c0.6,0.6,11.1-12.3,11.7-11.7 c0.5,0.5-15.7,21.8-15.2,22.4c0.8,0.8,21.6-23.2,22.4-22.4c0.7,0.7-24.4,29.5-23.6,30.3c1,1,26.4-28.5,27.4-27.4 c0.9,0.9-28.2,34.3-27.4,35.1c1.3,1.3,34.5-36.7,35.6-35.6c0.7,0.7-31.6,36.7-30.7,37.6c1.4,1.4,35.3-38.3,36.8-36.8 c1,1-31.5,36.2-30.7,37.1c1.4,1.4,34.3-36.7,35.5-35.5c1,1-31.6,36.5-30.9,37.3c1,1,34.4-36.6,35.5-35.5 c0.9,0.9-27.6,33.8-27,34.4c1.2,1.2,31.6-34.1,32.8-32.8c0.7,0.7-28.7,35-28,35.6c0.6,0.6,6.3-7.1,6.7-6.7" id="path57"/></g><g id="path1371_1_"><path class="st10" d="M528.1,833.1c0.4,0.4,3.6-4.4,4-4c0.8,0.8-24.5,29.7-23.8,30.4c1.1,1.1,25.8-28.3,27.1-27.1 c1.3,1.3-43.7,47.8-42.5,49c1.5,1.5,46.2-49.5,47.8-47.8c1.8,1.8-69,72.5-66.9,74.6c1.8,1.8,69.7-73.5,71.6-71.6 c1.9,1.9-90.5,91.9-87.9,94.5c3,3,91.8-96.2,94-94c2.3,2.3-99.6,101.4-96.7,104.3c2.3,2.3,99.2-105.3,102.3-102.3 c2.7,2.7-100.6,102.6-98.2,105c3.3,3.3,101-107.1,104.1-104.1c2.7,2.7-99.8,101.7-97.3,104.2c2.8,2.8,100.4-105.7,103.1-103.1 c3,3-100.5,102-97.7,104.8c3.4,3.4,98.5-104.8,101.6-101.6c2.5,2.5-98.5,100-95.6,102.9c2.4,2.4,94.4-100.3,97.4-97.4 c2.8,2.8-93,96.1-90.7,98.4c2.6,2.6,88.6-93.7,91.2-91.2c2.2,2.2-86.7,90.2-84.7,92.1c2.5,2.5,83.9-89.5,86.7-86.7 c2.3,2.3-81.4,84.2-79.1,86.4c2.8,2.8,77-82.7,79.9-79.9c2,2-76.7,80.1-75.1,81.7c2,2,75.4-80.4,77.9-77.9 c2,2-75.2,77.4-73.1,79.5c2.6,2.6,72.3-77.2,74.8-74.8c2,2-71.3,74.8-69.4,76.7c2.3,2.3,66.7-70.8,68.8-68.8 c1.9,1.9-62.1,65.6-60.4,67.2c1.9,1.9,62-65.9,64-64c1.5,1.5-61.2,65.9-59.7,67.3c1.5,1.5,59.2-63.1,61.1-61.1 c1.7,1.7-56.6,60-55.1,61.5c1.5,1.5,53.9-57,55.4-55.4c1.5,1.5-51.5,55.3-50.2,56.6c1.4,1.4,49.4-52.4,50.9-50.9 c1.4,1.4-46.9,50.8-45.5,52.2c1.7,1.7,45.4-48.5,46.9-46.9c1.1,1.1-42.4,47.8-41.3,48.9c1.3,1.3,42.7-45.4,44-44 c0.8,0.8-37.3,42.5-36.2,43.6c1.2,1.2,36.3-39,37.7-37.7c1,1-32.5,37.6-31.5,38.6c1.3,1.3,31.9-33.7,32.8-32.8 c0.8,0.8-28,33-27.3,33.7c0.9,0.9,25-27.3,26.2-26.2c0.5,0.5-20.2,26-19.5,26.7c1.1,1.1,20.1-21.9,21-21 c0.5,0.5-17.7,23.9-17.1,24.5c0.9,0.9,17.9-19.6,18.7-18.7c0.4,0.4-11.8,17.6-11.4,17.9c0.8,0.8,12-13.5,12.8-12.8 c0.3,0.3-8.8,14.6-8.5,14.9c0.5,0.5,10.6-12,11.3-11.3c0.2,0.2-4.6,11.7-4.4,11.9c0.5,0.5,5.2-6.3,5.8-5.8 c0.1,0.1-0.8,7.2-0.7,7.3c0.3,0.3,0.3-0.9,0.6-0.6" id="path60"/></g><g id="_193712592_1_"><path class="st9" d="M549.9,934c0.3,0.3,0-0.6,0.3-0.3c0.1,0.1,3.6,3.3,3.6,3.3c0.4,0.4,3.1-4.2,3.7-3.7c0.2,0.2-2.4,9-2.2,9.2 c0.5,0.5,10.8-11.9,11.3-11.3c0.2,0.2-7.9,13.8-7.6,14c0.6,0.6,8.6-9.8,9.2-9.2c0.3,0.3-7.1,13-6.9,13.3c0.5,0.5,6-6.9,6.5-6.5" id="path63"/></g><g id="_193709880_1_"><path class="st10" d="M589.2,845.8c0.4,0.4,1.9-2.5,2.2-2.2c0.1,0.1,0.4,6.1,0.5,6.2c0.5,0.5,5.8-6.8,6.3-6.3 c0.2,0.2-5.7,11.6-5.5,11.9c0.7,0.7,12-13.2,12.6-12.6c0.3,0.3-11.7,17.4-11.3,17.8c0.9,0.9,16.9-18.5,17.7-17.7 c0.6,0.6-16.7,22.5-16.2,23c0.7,0.7,18.7-20.4,19.5-19.5c0.4,0.4-17.4,22.9-16.8,23.5c0.8,0.8,16.9-18.7,17.8-17.8 c0.5,0.5-18.2,24.7-17.7,25.1c0.9,0.9,20.6-22.5,21.5-21.5c0.5,0.5-16.5,22-15.9,22.5c0.9,0.9,17.2-18.5,17.9-17.9 c0.3,0.3-10.7,16.9-10.3,17.2c0.7,0.7,11.6-13.2,12.4-12.4c0.3,0.3-6.2,12.9-5.9,13.2c0.6,0.6,9.3-10.4,9.9-9.9 c0.1,0.1-2.5,8.7-2.3,8.8c0.4,0.4,2.2-3,2.6-2.6" id="path66"/></g><g id="path1367_1_"><path class="st10" d="M479.4,837.3c0.5,0.5,4.8-5.6,5.2-5.2c0.2,0.2-5.1,12.1-4.9,12.3c0.8,0.8,13.4-14.8,14.1-14.1 c0.4,0.4-10.5,17.6-10.2,17.9c0.8,0.8,17.6-19.2,18.4-18.4c0.6,0.6-17.1,23.3-16.6,23.7c0.9,0.9,19-20.8,19.9-19.9 c0.4,0.4-13.9,20.6-13.5,21c0.8,0.8,19.6-21.1,20.4-20.4c0.5,0.5-15.8,21.2-15.2,21.8c0.7,0.7,20.1-21.9,21-21 c0.6,0.6-16.7,23.4-16.2,23.9c0.7,0.7,13.9-15.5,14.7-14.7" id="path69"/></g><g id="_193713648_1_"><path class="st1" d="M523.8,708.7c0.3,0.3,1.2-1.9,1.5-1.5c0.5,0.5-14.5,20.2-14,20.7c1.2,1.2,29.1-31,30.1-30.1 c0.7,0.7-31.7,36.6-30.7,37.6c1.3,1.3,38.3-40.7,39.5-39.5c1.2,1.2-42.5,47.1-41.2,48.4c1.8,1.8,50.2-53.3,51.8-51.8 c1.6,1.6-55.2,58.2-53.5,59.9c1.5,1.5,57.2-60.5,58.8-58.8c1.4,1.4-58.6,62.9-57.3,64.2c2.1,2.1,61-65.7,63.3-63.3 c1.7,1.7-65.4,68.2-63.4,70.2c1.9,1.9,69.8-73.6,71.7-71.7c1.7,1.7-71.8,74.8-69.6,76.9c2.3,2.3,72.9-76.9,74.9-74.9 c1.8,1.8-76.5,79.5-74.6,81.4c1.9,1.9,77.2-81.7,79.4-79.4c1.6,1.6-78.7,82.8-76.9,84.6c2.2,2.2,80.7-86.2,83.4-83.4 c2.2,2.2-83.8,87-81.7,89.1c2.7,2.7,84.7-89.5,87.1-87.1c2.4,2.4-87.3,90.4-85.1,92.6c2.6,2.6,86-90.8,88.4-88.4 c1.9,1.9-84.6,88-82.4,90.2c2.2,2.2,85.4-91.3,88.4-88.4c2.1,2.1-89.4,90.9-86.8,93.6c2.4,2.4,87.1-93.2,90.1-90.1 c1.8,1.8-89.8,92.4-87.3,94.9c2.4,2.4,90.8-96.8,93.8-93.8c2.6,2.6-90.1,94.1-88.2,95.9c2.5,2.5,87.6-93.5,90.6-90.6 c1.9,1.9-87.5,90-85.2,92.3c3,3,88.2-92.6,90.4-90.4c2.3,2.3-88.9,91-86.6,93.3c3,3,86.6-92.6,89.6-89.6 c2.2,2.2-88.1,91.5-86.3,93.3c2.7,2.7,87.7-93.6,90.6-90.6c2.3,2.3-88.5,90.1-85.8,92.7c2.4,2.4,88.1-92.7,90.4-90.4 c2.2,2.2-88.4,91.6-86.2,93.8c2.9,2.9,85.5-91.1,88.3-88.3c2.1,2.1-86.3,87.8-83.8,90.3c2.8,2.8,84.5-88.9,86.7-86.7 c1.7,1.7-82.4,85.9-80.4,87.9c2,2,82.5-87.4,84.9-84.9c2.3,2.3-81.5,84.1-79.5,86.1c2.2,2.2,79.4-84.6,82-82 c2.2,2.2-79.2,82.8-77.4,84.6c2.8,2.8,79.6-84.6,82.1-82.1c2,2-78.5,81.8-76.6,83.7c2.1,2.1,74.7-78.6,76.7-76.7 c1.9,1.9-70.4,72.9-68.3,75c1.9,1.9,68.6-72.8,70.7-70.7c2.1,2.1-67.5,70.9-65.9,72.5c2.1,2.1,64.6-69.4,67-67 c1.4,1.4-59.9,64.4-58.4,66c1.6,1.6,59.1-62.6,60.9-60.9c1.2,1.2-57.1,61.1-55.4,62.8c1.7,1.7,52.6-56.3,54.4-54.4 c1.2,1.2-47.2,50.9-45.8,52.4c1.7,1.7,43.6-46.9,45.3-45.3c1.2,1.2-36.3,41.5-35.2,42.6c1.1,1.1,34.7-37.7,36.2-36.2 c0.6,0.6-27.1,32.9-26.3,33.7c0.9,0.9,21.2-23,22.1-22.1" id="path72"/></g><path id="_193714704" class="st4" d="M480.4,1013.2l-3.4,50.7l86.2-30.8l3,25.9"/><path id="_193714608" class="st4" d="M543.2,1022.5l2.5,55.1l85.5-33.4v35.9"/><path id="_193714512" class="st4" d="M474.1,953.9l-16.2,56.3l45.8,6l10.1-32.3l9,39.4l43.9-1.9l1.8-49.5L474.1,953.9z"/><path id="path1367" class="st4" d="M528,831.3 c-15.4-10-32.1-10-50.3,0c-11.6,22.7-3.5,33.8,24.4,33.4L528,831.3z"/><path id="path1371" class="st4" d="M578.1,835.3 c-4.1-0.6-8.3-1.4-12.6-2.4c-12.1-3.5-22.5-8-31.2-13.3l-6.3,11.8l-25.9,33.4L443.3,948l168,32.3c0.8-1.3,0.7-1,1.1-2.6l-21-94.1 L578.1,835.3z"/><path id="_193714320" class="st11" d="M509.2,717c-6.9,0-12.5,3.4-12.5,7.5c0,3.5,4,6.5,9.4,7.3c2.9-5,5.9-9.7,9.1-13.9 C513.4,717.3,511.4,717,509.2,717z"/><path id="_193713528" class="st11" d="M670.5,776.6c-0.2,0-0.3,0-0.5,0c-0.4,4.5-1.1,9.1-2.2,13.8c-0.1,0.3-0.3,0.6-0.4,0.8 c0.9,0.4,2,0.7,3,0.7c4.1,0,7.5-3.4,7.5-7.7S674.7,776.6,670.5,776.6z"/><path id="_193713648" class="st4" d="M664.9,741.7c6.1,15.1,7.1,31.3,3,48.7 c-18.9,39.7-53,53.8-102.4,42.4c-53.9-15.8-74.1-48.9-60.4-99.4c20.8-37.5,49.9-52.9,87.4-46.1 C621.6,696.8,645.7,714.9,664.9,741.7L664.9,741.7z"/><path id="_193713720" class="st4" d="M631.5,855.6l116.4-26.4"/><path id="_193713792" class="st4" d="M744.7,811.2l-12,21.6l-0.2,26.2"/><path id="_193713912" class="st4" d="M755,846.3l-22.3-13.5l10.1,24.4"/><path id="_193714056" class="st4" d="M489.6,826.2l-34-83.7"/><path id="_193714152" class="st4" d="M486.8,753.3L464.4,764l-24.2-15.5"/><path id="_193714248" class="st4" d="M438.4,765.3l26.1-1.5l5.8-23.6"/><path id="_193710048" class="st4" d="M659.3,733.6c24.8,12.4,50.3,20.3,76.3,23.6"/><path id="_193713360" class="st4" d="M667.7,749.3c23.6,10.4,45.8,17.8,66.4,22.1"/><path id="_193713384" class="st4" d="M670.1,764.6c21.8,11,41.4,18.4,58.9,22.1"/><path id="_189529488" class="st4" d="M677.2,788c19.3,8.7,38.3,16.2,56.8,22.6"/><path id="_193712040" class="st4" d="M504.5,731.5c-28.6,5-55.1-1.7-79.5-19.9"/><path id="_193711416" class="st4" d="M519.1,713c-40-0.1-70.5-13.9-91.5-41.3"/><path id="_193708968" class="st4" d="M530.4,701.9c-30.4-7-56.4-18.1-78-33.4"/><path id="_193712400" class="st4" d="M477.7,666.7c30.2,13.5,55.1,21.1,74.6,22.9"/><path id="_193708584" class="st4" d="M534.8,729c-2.8,64.7,96.7,78.7,115.1,28.5"/><path id="_193711152" class="st4" d="M615.4,722.2c-4.7-9.6-9.8-10.9-15.4-3.7"/><path id="_193708128" class="st4" d="M587.3,712.1c-4.4-5.3-10.1-5-17.3,0.8"/><path id="_193711800" class="st4" d="M566.2,686.4c12.1-11.9,20.2-22.1,24.5-30.6"/><path id="_193712496" class="st4" d="M583.3,686.1c8.3-6.7,15.5-13.6,21.7-20.6"/><path id="_193711872" class="st4" d="M599.1,689.7c4.3-6.4,7.6-12.4,10.1-18"/><path id="_193707840" class="st4" d="M619.2,699.2c-1.5-8.3-3.4-16.1-5.6-23.2"/><path id="_193709664" class="st4" d="M636.3,711c-4-5.4-5.9-11.1-5.6-16.9"/><path id="_193711632" class="st4" d="M649.9,723.3c-2.4-4.1-3.5-8.5-3.4-13.1"/><path id="_193712592" class="st12" d="M555.4,958.1c30.2-21.1,23-43.8,2.2-28.5 C543.6,915.6,532,928.1,555.4,958.1z"/><path id="_193709880" class="st4" d="M578.2,835.3 c13.8,2.1,26.4,1.9,37.5-0.6c13.7,13.8,19.7,25.3,18,34.6c-3.7,13.3-17.9,18.1-42.4,14.2L578.2,835.3z"/><path id="_193712376" class="st4" d="M502.1,864.7l25.9-33.4"/></g><g id="g1149"><g id="_194179816_1_"><path class="st13" d="M973,449.4c1.2,1.2,45-48,46.5-46.5c1.3,1.3-45.7,50.5-44.5,51.7c1.7,1.7,43.4-46.8,45.1-45.1 c1.3,1.3-42.9,47.8-41.8,49c1.4,1.4,41.5-44.8,43.2-43.2c1.1,1.1-41.7,46.3-40.6,47.4c1.2,1.2,40.5-42.9,41.7-41.7 c1,1-42.2,46.7-41.1,47.9c1.5,1.5,40-42.6,41.3-41.3c0.8,0.8-32.7,37.4-31.8,38.3c1.3,1.3,31.3-34.1,32.7-32.7 c0.8,0.8-26.7,32-25.9,32.8c1.1,1.1,27.9-30.4,29.2-29.2c0.5,0.5-20.4,26.4-19.7,27c1,1,19.9-21.9,20.9-20.9 c0.5,0.5-13.6,19.8-13.1,20.2c0.5,0.5,11.6-13.1,12.3-12.3c0.2,0.2-3.6,10.2-3.4,10.4c0.5,0.5,3.5-4.5,4-4" id="path110"/><path class="st13" d="M915.3,394c0.4,0.4,3.1-3.9,3.5-3.5c0.2,0.2-4.1,11-3.9,11.2c0.7,0.7,12.2-13.6,12.9-12.9 c0.5,0.5-15.2,21.1-14.7,21.6c1,1,19.6-21.5,20.6-20.6c0.6,0.6-20.3,26-19.8,26.5c1.1,1.1,28.4-30.7,29.5-29.5 c0.8,0.8-31.2,36-30.3,37c1.3,1.3,35.1-37.9,36.5-36.5c1.2,1.2-39.6,45-38.4,46.1c1.7,1.7,46.8-49.7,48.3-48.3 c1.2,1.2-49.8,53.6-48.3,55.1c1.5,1.5,53.6-57,55.3-55.3c1.7,1.7-57.7,62-56.3,63.4c2,2,62.8-66.1,64.5-64.5 c1.5,1.5-64.9,68.3-63.4,69.8c2.1,2.1,67.8-72,69.9-69.9c2.1,2.1-73.1,76.1-71,78.3c1.9,1.9,75.7-79.9,77.8-77.8 c2.2,2.2-80.6,82.8-78.4,85.1c2.6,2.6,84.6-90.2,87.4-87.4c2.5,2.5-82.5,84.7-80.3,86.9c2.1,2.1,84.4-88.9,86.7-86.7 c2.4,2.4-82.7,85-80.5,87.3c2.5,2.5,84.6-90.2,87.4-87.4c2,2-82.5,84.7-80.4,86.8c2.6,2.6,78.6-83.6,81.1-81.1 c1.7,1.7-76.9,79.2-74.6,81.5c1.9,1.9,75.3-79.8,77.5-77.5c1.8,1.8-72,75.4-70.3,77.1c2.3,2.3,69.8-74.7,72.3-72.3 c1.5,1.5-66.7,70.6-64.9,72.4c2.1,2.1,65.3-70.1,67.7-67.7c1.5,1.5-65,69-63.6,70.4c0.3,0.3,1.1-1.8,1.5-1.5" id="path112"/></g><g id="_193488256_1_"><path class="st14" d="M1004.1,256.6c0.4,0.4,0-0.7,0.4-0.4c0.1,0.1,0.7,5.6,0.8,5.7c0.4,0.4,4.2-4.9,4.6-4.6 c0.2,0.2-2.4,9.6-2.2,9.8c0.6,0.6,6.7-7.8,7.2-7.2c0.2,0.2-4.2,10.8-4,10.9c0.7,0.7,10-11.4,10.7-10.7 c0.4,0.4-10.5,17.5-10.2,17.9c0.7,0.7,14.9-16.5,15.7-15.7c0.4,0.4-13.8,19.4-13.3,19.9c0.9,0.9,20-21.7,20.8-20.8 c0.7,0.7-19.3,25.2-18.7,25.8c0.9,0.9,22.7-25,23.8-23.8c0.8,0.8-25.1,31.4-24.4,32.1c1,1,25.2-27.4,26.3-26.3 c0.7,0.7-21.4,26.9-20.7,27.6c0.7,0.7,19.5-21,20.2-20.2c0.4,0.4-12.4,18.6-11.9,19c0.7,0.7,8-9.5,8.7-8.7 c0.3,0.3-5.3,11.4-5,11.7c0.4,0.4,4.5-5.4,4.9-4.9" id="path115"/></g><g id="path1105_1_"><path class="st14" d="M950.1,253.2c0.3,0.3,1.3-2,1.6-1.6c0.4,0.4-10.2,16.9-9.8,17.3c0.7,0.7,13.1-14.6,13.8-13.8 c0.6,0.6-19.9,25.9-19.2,26.5c1,1,25.1-27.6,26.3-26.3c1.1,1.1-33.3,38.4-32.4,39.4c1.3,1.3,39.3-42.5,40.9-40.9 c1,1-44.6,48.8-43.5,50c1.3,1.3,46.8-50.7,48.8-48.8c1.7,1.7-55.4,59.8-53.7,61.5c1.6,1.6,59.9-64.4,62.2-62.2 c1.5,1.5-68.5,72-66.7,73.8c1.8,1.8,68.6-72,70.3-70.3c2,2-76.2,79.5-74.1,81.7c2.4,2.4,72-77.2,74.6-74.6 c2.2,2.2-81.5,83.2-79.1,85.6c2.7,2.7,79.6-83.6,81.6-81.6c2.7,2.7-87.9,90.5-85.5,92.9c2.5,2.5,82.5-88.4,85.4-85.4 c2.2,2.2-92.6,94.3-90,96.9c3.1,3.1,89.6-94,91.8-91.8c2.2,2.2-91.9,94.4-89.7,96.5c2.8,2.8,89.9-94.9,92.4-92.4 c2.6,2.6-89.6,91.3-87.2,93.7c2,2,84.7-90.7,87.7-87.7c2,2-81.2,83.5-79.1,85.7c2.5,2.5,79.5-84.8,82.1-82.1 c2,2-77.5,80.5-75.8,82.2c2.7,2.7,73.8-78,75.9-75.9c1.6,1.6-69.5,73.2-67.7,75c2.1,2.1,66.5-70,68.3-68.3 c1.4,1.4-61.3,64.7-59.6,66.4c2.3,2.3,60.1-63.9,62-62c1.2,1.2-56.7,61.3-55.4,62.6c2.1,2.1,56.7-60.5,58.6-58.6 c1.5,1.5-50.1,54.5-48.6,55.9c1.5,1.5,50-53,51.5-51.5c1,1-44.3,49.5-43,50.7c1.5,1.5,43.1-45.7,44.4-44.4 c1.1,1.1-38.6,43.5-37.8,44.3c1.4,1.4,37.3-40.3,38.8-38.8c0.7,0.7-33.6,38.4-32.8,39.2c1.3,1.3,33.5-35.7,34.6-34.6 c0.9,0.9-28.1,33.5-27.2,34.5c1.3,1.3,29.3-31.2,30.3-30.3c0.5,0.5-21.5,26.8-20.8,27.5c0.9,0.9,22.2-24,23.1-23.1 c0.6,0.6-17.7,23.9-17.2,24.4c0.7,0.7,16.7-18.4,17.5-17.5c0.3,0.3-8,15-7.7,15.4c0.7,0.7,10-11.1,10.5-10.5 c0.2,0.2-1.8,9.2-1.6,9.4c0.5,0.6,2.4-3.4,2.9-2.9c0.1,0.1,3.1,4.2,3.2,4.3c0.3,0.3,1.3-1.9,1.6-1.6" id="path118"/></g><g id="_192543752_1_"><path class="st14" d="M900.3,263.1c0.3,0.3,1.6-2.3,2-2c0.1,0.1,1.5,4.9,1.6,5c0.6,0.6,8-9.1,8.6-8.6c0.3,0.3-7.4,13.5-7.2,13.7 c0.8,0.8,18.3-20.1,19.2-19.2c0.6,0.6-18.6,24.6-18,25.2c1.1,1.1,27.2-29.6,28.4-28.4c0.7,0.7-26.9,32.1-26.2,32.8 c1.3,1.3,29.3-31.8,30.5-30.5c0.9,0.9-30.1,35.5-29.2,36.4c1,1,28.9-31.5,30.2-30.2c1,1-31.7,37.1-30.8,38 c1.1,1.1,24.7-26.7,25.7-25.7c0.5,0.5-16,21.5-15.6,22c0.6,0.6,9.2-10.2,9.7-9.7" id="path121"/></g><g id="_192541688_1_"><path class="st15" d="M913.6,123.9c0.3,0.3,0.5-1.2,0.9-0.9c0.5,0.5-11.9,18.5-11.5,18.9c0.9,0.9,29.5-31.5,30.5-30.5 c1.1,1.1-34.2,39.1-33.4,39.9c1.5,1.5,39.8-43.2,41.5-41.5c0.9,0.9-44.8,49.1-43.6,50.2c1.7,1.7,52.1-55.6,53.9-53.9 c1.6,1.6-55.9,60.2-54.5,61.6c2.3,2.3,59.8-63.8,61.8-61.8c1.9,1.9-63.6,66.6-61.7,68.6c2.4,2.4,67-71,69-69 c1.6,1.6-68.4,72.7-66.8,74.3c2.6,2.6,70.4-75.3,72.8-72.8c1.8,1.8-73.7,77.4-72.1,79c2.2,2.2,77.5-81.7,79.6-79.6 c2,2-81.9,84.1-79.5,86.5c2.9,2.9,83.1-87.7,85.4-85.4c2.2,2.2-86,87.7-83.5,90.2c2.6,2.6,86.2-91.9,89.1-89.1 c1.8,1.8-86.9,90.6-84.9,92.5c2.8,2.8,86.4-91.9,89.1-89.1c2.3,2.3-89.9,91.7-87.4,94.2c2.9,2.9,89.6-95.8,92.7-92.7 c2.6,2.6-91.3,94.8-89.2,96.8c2.8,2.8,92.8-99.3,96.1-96.1c2.3,2.3-96,98.7-94,100.7c2.4,2.4,93.4-99.3,96.3-96.3 c2.4,2.4-93,96.6-91,98.6c2.4,2.4,93.4-98.9,96.1-96.1c2.9,2.9-95.2,98-92.8,100.5c2.8,2.8,94-99.5,96.8-96.8 c2,2-94.2,96-91.8,98.4c3.3,3.3,92.7-98.4,95.5-95.5c2.8,2.8-94.4,96.3-91.6,99.1c3.3,3.3,94.1-99.4,96.7-96.7 c2.5,2.5-94.6,96.3-91.8,99.1c2.6,2.6,94.3-99.9,97.1-97.1c2.8,2.8-95,97-92.7,99.4c2.7,2.7,93.2-97.8,95.5-95.5 c2.1,2.1-94.4,96.2-91.9,98.6c2.2,2.2,90.7-95.4,93-93c2.2,2.2-89.3,91-87,93.3c2.5,2.5,87.8-92.1,90-90c2.2,2.2-86.2,90-84.3,92 c3,3,85.3-90.8,88.1-88.1c2.5,2.5-84.7,87.9-82.6,89.9c2.3,2.3,82.9-88.3,85.6-85.6c2.1,2.1-81.3,83.9-79.3,85.8 c2.8,2.8,78.4-83.2,80.8-80.8c2.1,2.1-77.3,80.3-75,82.6c2.3,2.3,75.1-79.1,77.1-77.1c2,2-71.5,74.8-69.4,76.9 c2.1,2.1,71.1-75.1,73.1-73.1c1.5,1.5-67,70.4-64.9,72.4c2.2,2.2,62.6-67,64.8-64.8c1.4,1.4-58.8,62.4-57.3,63.9 c2.1,2.1,57.4-61.6,59.5-59.5c1.6,1.6-51.9,56.8-50.6,58.1c1.8,1.8,48.2-51.1,49.7-49.7c1.1,1.1-41.1,46.6-40,47.7 c1.3,1.3,38.6-41.8,40.2-40.2c0.8,0.8-32.5,37.8-31.6,38.8c1.2,1.2,29.1-31.3,30.2-30.2c0.5,0.5-19.3,25-18.7,25.6 c0.7,0.7,10.7-12.1,11.4-11.4" id="path124"/></g><path id="_193488256" class="st4" d="M993.4,246 c1.2-0.1,2.4-0.3,3.6-0.5l53,12.3l-8.6,48.8l-32.3-4.9L993.4,246z"/><path id="_192543752" class="st4" d="M950.6,244.6 c-4-0.8-7.9-1.9-11.7-3.2l-46,20.8l10.5,39l21.7-3.8L950.6,244.6z"/><path id="_194178280" class="st4" d="M1035,566.4l-45.8-7.5l-1.3-86.2"/><path id="_194181976" class="st4" d="M931.7,477.1l-3.9,78l-40.5,13.5"/><path id="_194179816" class="st4" d="M1015.6,374.5l-105.5,9.8l-8.6,92.4l55.5,0.7l9-21.7l8.3,19.1l64.9-10.5l-15.7-79.9 L1015.6,374.5z"/><path id="_194177728" class="st4" d="M897,277.4l-35.2,22.7l41.2,39 l3,10.7"/><path id="_194177752" class="st4" d="M1027.9,346.2l52.9-38.3 l-35.1-25.9"/><path id="_194180104" class="st4" d="M939.7,381.6c6.7,31-5.8,43.1-33.6,46.7"/><path id="_194178952" class="st4" d="M996.2,376.3 c-1.3,41.8,12.3,51.7,33.3,45.9"/><path id="path1105" class="st4" d="M993.4,246 c-13.6,1.7-28.6,1.6-42.8-1.4l-25.4,52.9L892.9,386l144.7-13.5l-28.5-70.9L993.4,246z"/><path id="path1110" class="st16" d="M931.9,283.4L921.1,251l-8.3,3.8 l12.4,42.7L931.9,283.4z"/><path id="path1114" class="st16" d="M1009.2,301.6l18.4-47.7 l-12.4-2.9l-10.6,34.1L1009.2,301.6z"/><path id="_193488328" class="st16" d="M1004.5,285.2l-72.6-1.7 l-6.7,14.1l84,4.1L1004.5,285.2z"/><path id="_193488184" class="st17" d="M1065.9,170.3c-0.4,0-0.9,0-1.3,0.1c-0.8,0.1-1.7,0.2-2.5,0.4c0.8,5.5,1,11,0.4,16.4 c1.1,0.1,2.2,0.1,3.4,0.1c6.9-0.5,12.2-4.7,11.9-9.4C1077.4,173.5,1072.2,170.3,1065.9,170.3z"/><path id="_193488592" class="st17" d="M890.2,165.6c-1.2,0-2.4,0.1-3.7,0.4c-6.7,1.4-11.5,6.3-10.7,11c0.8,4.7,7,7.4,13.7,6 c0.3-0.1,0.6-0.1,0.9-0.2c-0.6-5.6-0.5-11.4,0.4-17.1C890.7,165.6,890.5,165.6,890.2,165.6z"/><path id="_192541688" class="st4" d="M904.2,216.9c31.5,43.3,108.6,32.2,131.6,15 c29.8-22.3,34.4-57,16.9-87.8c-13.7-24.2-38.9-41.4-70.1-44.6c-34.9-3.7-64.4,11.9-81.4,39.4C884.3,166,887.7,194.2,904.2,216.9 L904.2,216.9z"/><path id="_192543848" class="st4" d="M1056.4,353l-28.1-6.8l19.8,19.7"/><path id="_192542480" class="st4" d="M889.5,359.4l13.5-20.3 M903,339.1l-19.3,12.2"/><path id="_192540824" class="st4" d="M927.2,112l-6.4-22.1"/><path id="_193484920" class="st4" d="M940.9,104.9l-2.3-18.8"/><path id="_193487944" class="st4" d="M958.3,100.1L957.9,75"/><path id="_192540944" class="st4" d="M974.9,99l0.4-20.6"/><path id="_192538688" class="st4" d="M993.5,101.2l2.6-21.4"/><path id="_193490704" class="st4" d="M1007.7,105.5l7.5-18.7"/><path id="_193491184" class="st4" d="M1020.7,111.8l4.1-21"/><path id="_193491448" class="st4" d="M1030.9,118.8l5.6-15.8"/><path id="_193487680" class="st18" d="M977.7,151.4c0,3.4-2.1,6.2-4.7,6.2 c-2.6,0-4.7-2.8-4.7-6.2c0-3.4,2.1-6.2,4.7-6.2C975.6,145.2,977.7,148,977.7,151.4z"/><path id="_193486744" class="st18" d="M997.4,152c0,3.4-2.1,6.2-4.7,6.2c-2.6,0-4.7-2.8-4.7-6.2 s2.1-6.2,4.7-6.2C995.3,145.8,997.4,148.6,997.4,152z"/><path id="_192543056" class="st4" d="M928.9,164.4c10.4,59.8,105.9,61.8,108.8,9.4"/></g><g id="g1317"><g id="_193717272_1_"><g id="g159"><path class="st19" d="M663.8,264.2c0.5,0.5,1.4-2.1,1.8-1.8c0.1,0.1-0.1,6.7,0.1,6.8c0.5,0.5,4.2-5.3,4.8-4.8 c0.3,0.3-5.7,11.9-5.4,12.1c0.5,0.5,11.1-12.2,11.7-11.7c0.4,0.4-8.9,16.2-8.7,16.4c0.9,0.9,15.4-16.8,16.1-16.1 c0.4,0.4-13.9,20.4-13.5,20.8c0.9,0.9,17.4-19.1,18.3-18.3c0.4,0.4-18.1,23.5-17.5,24c0.8,0.8,21.6-23.8,22.7-22.7 c0.6,0.6-21.8,27.6-21,28.4c1,1,25.7-28,26.9-26.9c0.7,0.7-26.4,31.6-25.5,32.4c0.8,0.8,20.3-22.3,21.3-21.3 c0.5,0.5-20.5,26-19.9,26.6c0.7,0.7,14.8-16.2,15.5-15.5c0.4,0.4-13.7,19.8-13.4,20.1c0.6,0.6,10.1-11.4,10.8-10.8 c0.3,0.3-5.1,11.7-4.9,11.9c0.4,0.4,2.2-3.1,2.7-2.7" id="path157"/></g></g><g id="path1107_1_"><path class="st19" d="M575.4,265c0.4,0.4,4.2-4.8,4.5-4.5c0.3,0.3-11.3,17.8-11,18.1c0.7,0.7,15.3-16.7,16-16 c0.8,0.8-25.9,31-25.2,31.7c1.2,1.2,29.7-32,30.9-30.9c1,1-38.8,43.1-37.7,44.2c1.3,1.3,40.3-42.8,41.5-41.5 c1.1,1.1-51.2,55.3-50,56.5c2.1,2.1,53.7-57.8,55.8-55.8c1.9,1.9-64.6,68.4-63.1,69.9c2,2,69.2-73.3,71.2-71.2 c2.4,2.4-81.6,85.3-79.8,87.1c2.7,2.7,85.1-90.1,87.6-87.6c2.9,2.9-98.9,100.4-96.3,103.1c3.3,3.3,100.6-107.3,104-104 c2.8,2.8-116.6,117.2-113.5,120.3c2.9,2.9,116.3-124.2,120.2-120.2c2.9,2.9-130.4,129.8-126.9,133.3c3.7,3.7,129.7-138.2,134-134 c3.3,3.3-145.8,144.2-141.7,148.3c3.9,3.9,144.9-153.8,149.4-149.4c3.5,3.5-150.4,149.9-146.7,153.6 c4.7,4.7,144.1-150.9,147.5-147.5c3.7,3.7-143.1,143.6-140,146.7c3.7,3.7,138.2-146.4,142.3-142.3 c3.1,3.1-138.1,138.3-134.3,142.1c4.5,4.5,131.7-140.5,136.1-136.1c2.9,2.9-132.9,133.1-129.6,136.3c3.2,3.2,125.2-132.8,129-129 c3.5,3.5-126.7,127.4-123.5,130.6c3.2,3.2,121.6-129.1,125.3-125.3c3.3,3.3-118.7,121.3-116.2,123.8c3,3,116.6-122.1,119.4-119.4 c2.4,2.4-116.5,117.1-113.6,120c3.3,3.3,111.6-118.5,115.1-115.1C659,303.6,545.7,412,548.7,415c3.7,3.7,104.8-111.6,108.2-108.2 c2.3,2.3-105.7,106.6-102.7,109.6c2.9,2.9,100.6-105.6,103.1-103.1c2.6,2.6-96.2,98.7-94.2,100.7c2.8,2.8,92.6-97.6,95.1-95.1 c2.3,2.3-92.2,93.1-89.4,95.9c2.4,2.4,89.9-95.2,92.6-92.6c2.3,2.3-89.5,92.5-87.5,94.4c2.8,2.8,86.5-90.6,88.6-88.6 c2.3,2.3-83.3,86.3-81.2,88.4c2.9,2.9,82.1-86,84-84c2,2-78.5,81.3-76.4,83.3c1.9,1.9,74.4-78.6,76.5-76.5 c2.2,2.2-71.6,74.9-70,76.5c1.9,1.9,70.2-74.7,72.5-72.5c1.4,1.4-66.2,70.6-64.8,72c2,2,64.7-68.8,66.8-66.8 c1.8,1.8-61.5,64.8-59.7,66.6c1.6,1.6,59.1-62.9,61-61c1.2,1.2-53,57.9-51.7,59.3c2,2,50.6-54,52.3-52.3 c1.2,1.2-46.8,51.7-45.4,53.1c1.8,1.8,46.5-49.4,48-48c1.2,1.2-42.1,47.2-41.2,48.1c1.3,1.3,43-45.6,44.3-44.3 c1.1,1.1-38.3,43.4-37.3,44.4c1.3,1.3,36.6-38.9,37.8-37.8c0.8,0.8-31.5,36.5-30.7,37.3c1.1,1.1,29.9-32.3,31.1-31.1 c0.6,0.6-26.4,32.3-25.8,32.9c1.1,1.1,26.1-28.5,27.3-27.3c0.6,0.6-18.7,24.6-18.2,25.1c1,1,19.8-21.8,20.8-20.8 c0.5,0.5-13.6,20.1-13.2,20.6c0.8,0.8,15.1-16.6,15.8-15.8c0.4,0.4-10.8,16.9-10.4,17.3c0.7,0.7,11.9-13.3,12.6-12.6 c0.2,0.2-4.5,11.3-4.3,11.5c0.5,0.5,4.5-5.4,4.9-4.9c0.1,0.1,0.7,6.6,0.9,6.7c0.3,0.3,2-2.6,2.3-2.3" id="path162"/></g><g id="_193718184_1_"><g id="g167"><path class="st19" d="M519.8,274.5c0.4,0.4,1.7-2.5,2.1-2.1c0.1,0.1-1.3,8.2-1.1,8.3c0.7,0.7,10.1-11.6,10.8-10.8 c0.3,0.3-8.4,14.2-8,14.6c0.8,0.8,16.9-18.5,17.7-17.7c0.4,0.4-15.1,21.5-14.7,21.9c0.8,0.8,25.5-27.5,26.5-26.5 c0.6,0.6-23.2,29.2-22.6,29.8c1.4,1.4,33.3-35.8,34.5-34.5c0.9,0.9-33.2,39.2-32.3,40c1.6,1.6,37.9-40.6,39.2-39.2 c1.1,1.1-39.4,44-38.1,45.2c1.3,1.3,30.7-32.7,31.7-31.7c0.9,0.9-28.7,33.9-27.9,34.7c0.8,0.8,20.1-21.8,20.9-20.9 c0.5,0.5-19,25.3-18.3,25.9c0.6,0.6,8.2-9.4,8.8-8.8c0.4,0.4-9.1,14.9-8.8,15.2c0.3,0.3,2-2.6,2.3-2.3" id="path165"/></g></g><g id="_193717896_1_"><path class="st1" d="M601.7,93.4c0.4,0.4,2.8-3.6,3.2-3.2" id="path170"/><path class="st1" d="M539.1,130.2c0.8,0.8,12.9-14.4,13.7-13.7c0.5,0.5-16.7,22.8-16.3,23.3c1.2,1.2,27.7-30.3,29-29 c0.8,0.8-33.6,39-32.7,39.8c1.4,1.4,37.8-40.5,39.1-39.1c1.2,1.2-40.5,45.2-39.6,46.1c1.7,1.7,44.3-47,45.7-45.7 c1.2,1.2-46.1,50.8-45.1,51.8c1.7,1.7,52.2-56,54.1-54.1c1.2,1.2-55.5,59.5-54.2,60.7c2.4,2.4,78.7-83.4,81.1-81.1 c2.4,2.4-84.4,87.1-82.1,89.4c3,3,85.5-90.4,88-88c2.5,2.5-87.2,90.5-85,92.7c3.2,3.2,92.5-97.1,94.8-94.8 c2.7,2.7-97.7,100.1-95.5,102.3c2.6,2.6,98.3-105.1,101.7-101.7c2.6,2.6-100.8,102.6-98.5,104.9C540,197,637.7,87.3,640.8,90.4 c2.4,2.4-106.2,107.4-103.4,110.1c3.1,3.1,104.5-110.5,107.5-107.5c3.1,3.1-106.3,108.6-104.1,110.8 C544,207.1,649.4,90.1,652,92.7c2.6,2.6-113.2,114.9-110.3,117.8c3.5,3.5,110.5-117.5,114-114c2.4,2.4-115,115.4-111.5,118.8 c3.2,3.2,109.7-114.7,112.2-112.2c2.6,2.6-110,113-107.7,115.3c3,3,108.3-114,111.1-111.1c3.2,3.2-109.4,111.2-107,113.5 c3.8,3.8,112.1-117.7,114.9-114.9c2.8,2.8-114.6,116.7-112.2,119.1c2.8,2.8,113.8-121,117.4-117.4c3,3-116.3,118.7-113.7,121.3 c3.4,3.4,115-122.5,118.7-118.7c3.6,3.6-119.1,120.4-116.2,123.4c3.4,3.4,116.8-123.8,120.3-120.3c3.2,3.2-117.4,117.7-114.2,121 c3,3,114.6-122.4,118.5-118.5c3.1,3.1-116.4,118.8-113.8,121.4c3.3,3.3,115.9-123.3,119.6-119.6c3.4,3.4-118,119.8-115.6,122.3 c3.5,3.5,114.3-120.3,117.3-117.3c2.7,2.7-116.5,119-114.1,121.5c3.2,3.2,117.4-123,120.2-120.2c2.9,2.9-117.1,118.2-113.9,121.4 c2.6,2.6,112.7-117.9,115.3-115.3c2.8,2.8-112.4,112.8-109,116.2c3.3,3.3,107.4-113.8,110.6-110.6 c2.9,2.9-109.3,110.8-106.6,113.4c3.3,3.3,107-113.5,110.3-110.3c2.7,2.7-106.5,108.3-103.6,111.2 c2.7,2.7,103.9-109.9,106.9-106.9c3.1,3.1-104.1,105-101.1,108c2.5,2.5,97.4-104.3,100.9-100.9c2.7,2.7-96.5,99.6-94.4,101.7 c2.6,2.6,94.2-98.8,96.5-96.5c2.7,2.7-90.3,93.3-88,95.6c2.6,2.6,87.4-93.1,90.3-90.3c2.4,2.4-88.1,89.6-85.5,92.2 c2.3,2.3,84.9-89.2,87.1-87.1c2,2-77.8,81.9-76,83.8c2.4,2.4,72.6-76.8,74.7-74.7c1.8,1.8-70.2,73.8-68.1,75.8 c1.6,1.6,66.2-70.4,68.3-68.3c1.6,1.6-60.2,63.1-58.4,64.9c1.5,1.5,56.9-61.1,59-59c1.1,1.1-50.1,54.5-48.7,55.9 c1.7,1.7,46.4-49.1,47.8-47.8c1.1,1.1-36.3,41.5-35.4,42.4c1.3,1.3,29.9-32.6,31.2-31.2c0.4,0.4-14.1,20.3-13.6,20.8 c0.5,0.5,2.7-3.7,3.2-3.2" id="path172"/></g><path id="path1349" class="st20" d="M694.1,45.2 c-16.7-3.4-28.2,26.9-12.5,19s-11.1-19.4-22.1-9.1c-11,10.3,0.3,33,7.8,20.5c7.5-12.4-23.3-8.5-24.8,7.8"/><path id="path1353" class="st20" d="M622.7,82.5 c-4.1-16.8-32.3-17.6-20.8-7.3c11.5,10.3,17.2-14.1,5.8-20.2s-39.1,11.2-26.2,14.3s22.6-35.9-20.2-7.9"/><path id="_193718184" class="st4" d="M579.6,252.6 c-1.9-0.7-3.9-1.4-5.7-2.2l-67,22.5l30.8,56.3L579.6,252.6z"/><path id="path1351" class="st20" d="M526.3,148.6 c-19.1-9-24.2,14.4-13.5,8.9c10.7-5.5-8.3-14-16.2-5.9c-7.9,8.1-6.5,35.1,1.8,22.7c8.3-12.4-24.3-13.9-17.2,11.2"/><path id="path1363" class="st20" d="M536.9,127.3 c-21.7-13-31.7,13.6-20.1,10.8c11.6-2.9-5.6-16.3-15.1-13.4c-9.5,2.8-17.5,22.3-3.6,18.4c14-3.9-1.7-13.4-14-10.3 c-12.3,3.1-19.1,25.2-3.8,21.4c15.4-3.8-13.5-23.9-20.3-9.7"/><path id="path1361" class="st20" d="M528.7,97 c-15.4-13.4-28,6-16.3,8.7c11.7,2.6,4-19.7-5.8-21.4c-9.8-1.7-27.2,13-13,15.8c14.2,2.7,5.5-16.5-6.8-19.2 c-12.4-2.7-27.9,16.9-12.5,20.4c15.4,3.5-0.3-31.2-21.3-5.6"/><path id="path1345" class="st20" d="M749,159.7 c3.5-13-22.5-15.3-15.5-4.2c7,11,14-4.8,6.5-14.6c-7.5-9.8-22.3-5.4-15.2,2.6s16-15.2-14-21"/><path id="_193717368" class="st4" d="M577.7,422.1l-17,143.8l-38.9,6.4"/><path id="_193717464" class="st4" d="M629.5,421.6l-10.1,142.1l43.2,2.8"/><path id="_193719624" class="st4" d="M506,311.8l-27.1,34.8l-6.1,20.9"/><path id="_193719528" class="st4" d="M445.7,335.3l33.2,11.2l21.5,25.8 "/><path id="_193719432" class="st4" d="M485.3,373.4l-6.4-26.8l-24.8,7.2 "/><path id="_193719288" class="st4" d="M725.9,293.3l50.9,12.4l25,2.6"/><path id="_193719192" class="st4" d="M772.7,336.7l4.1-31l13.5-22.7"/><path id="_193719096" class="st4" d="M800.7,290.6l-23.9,15.1 l13.1,18.9"/><path id="_193718952" class="st21" d="M506.8,272.8l30.8,56.3 c-17.4,12.6-25.9,0.4-17.8-14.4c-13,5.1-19.9-7.9-13.7-18.4C489.8,295,486.6,279.1,506.8,272.8L506.8,272.8z"/><path id="_193718856" class="st21" d="M688.3,319.1l18.9-57.2 c25,4.4,27.3,21.7,5.4,19.4c20.6,5.7,16.2,21.3-4.7,18.9c19.4,6.7,17.2,22.5-4.1,14.3C725.1,327.2,700.8,340.8,688.3,319.1 L688.3,319.1z"/><path id="_193718568" class="st20" d="M781.5,171.5 c0-15.4-28.8-8.5-18.3-2.7c10.5,5.8,16.5-5.1,12.3-15.4c-4.3-10.4-24.4-8.2-21.1-1c3.4,7.2,20.7-3.3,15-14.8 c-5.8-11.6-26.2-12.6-20.9-1.9s16.3-7,10-17.2c-6.3-10.2-33.2-6.3-19,1.2c14.2,7.5,12.5-15.6-12.1-19.9"/><path id="path1107" class="st4" d="M651.6,253.8 c-23.7,6.7-49.8,6.6-72-1.2l-42,76.6l-51,93.9l214.1-2.3l-30.9-98.8L651.6,253.8z"/><path id="_193715376" class="st22" d="M566.3,276.9 c1.7,1.5,3.7,2.2,6.1,2.2c5.4,0,9.9-4.5,9.8-10.1c0-4.4-2.7-8.2-6.4-9.6L566.3,276.9z"/><path id="_193718088" class="st0" d="M521.7,161c-6.1,0-11.1,4.1-11.1,9.2c0,5.1,5,9.2,11.1,9.2 c1.2,0,2.4-0.2,3.5-0.5c-0.4-6-0.3-11.8,0.3-17.3C524.3,161.2,523,161,521.7,161z"/><path id="_193717992" class="st0" d="M725.1,160.4c-1.3,0-2.5,0.2-3.7,0.5c0.3,3,0.5,6,0.6,9.1 c0.1,2.8,0,5.6-0.2,8.3c1.1,0.3,2.2,0.4,3.3,0.4c6.1,0,11.1-4.1,11.1-9.2C736.2,164.5,731.2,160.4,725.1,160.4L725.1,160.4z"/><path id="_193717896" class="st4" d="M626.7,82.4c-11,0.1-22.1,1.7-32.7,4.7l2.4,16.8l-26.8-0.6 c-1.3,3.8-4.8,6.8-9.3,7.3c-2.7,0.3-5.2-0.4-7.2-1.7c-22.1,19.4-34.3,49.2-25,87.9c23.3,97.7,196,72.6,193.9-26.8 c-0.6-27-10.2-47.4-24.8-61.7c-1.3,0.4-2.7,0.6-4.2,0.5c-5-0.4-8.9-4.1-9.6-8.7L661,99.4l7.2-9.5C655.3,84.8,641.1,82.3,626.7,82.4 L626.7,82.4z"/><path id="_193717680" class="st18" d="M634.3,126.9c0,3.5-2.3,6.2-5.1,6.2 c-2.8,0-5.1-2.8-5.1-6.2c0-3.5,2.3-6.2,5.1-6.2C632,120.7,634.3,123.5,634.3,126.9z"/><path id="_193717656" class="st18" d="M608.5,129.7c0,3.5-2.3,6.2-5.1,6.2s-5.1-2.8-5.1-6.2 c0-3.5,2.3-6.2,5.1-6.2C606.2,123.4,608.5,126.2,608.5,129.7z"/><path id="_193717560" class="st4" d="M678,148.8c-9.2,93.7-108.8,92.8-119.5,3.1"/><path id="_193717272" class="st4" d="M669.8,321.9l18.5-2.8 l18.9-57.2l-51.5-9.4c-1.3,0.4-2.7,0.8-4,1.2L669.8,321.9z"/><path id="path1321" class="st23" d="M681.5,72.5L661,99.4l22.3,0.7c-0.1-0.8-0.2-1.7-0.1-2.5 c0.3-3.6,2.6-6.6,5.7-8.2L681.5,72.5z"/><path id="_193717752" class="st23" d="M729.2,92.1l-24.8,4.8c0.1,0.8,0.2,1.7,0.1,2.6 c-0.3,3.1-1.9,5.7-4.3,7.4l15,14.7L729.2,92.1z"/><path id="_193716816" class="st23" d="M704.5,99.5c-0.5,5.7-5.7,9.8-11.6,9.3 c-5.9-0.5-10.2-5.6-9.7-11.2c0.5-5.7,5.7-9.8,11.6-9.3S705,93.8,704.5,99.5z"/><path id="_193712232" class="st22" d="M589.1,322.6c0,6-5,10.9-11.3,10.9 c-6.2,0-11.3-4.9-11.3-10.9c0-6,5-10.9,11.3-10.9C584.1,311.7,589.1,316.6,589.1,322.6z"/><path id="_193711392" class="st22" d="M637.9,285.5c0,6.6-5,12-11.3,12s-11.3-5.4-11.3-12 c0-6.6,5-12,11.3-12S637.9,278.8,637.9,285.5z"/><path id="_193712760" class="st22" d="M691.1,276.7c0,6.5-5.1,11.8-11.4,11.8 c-6.3,0-11.4-5.3-11.4-11.8s5.1-11.8,11.4-11.8C686,264.8,691.1,270.1,691.1,276.7z"/><path id="_193716888" class="st22" d="M545.6,282.5c0,5.6-4.3,10.1-9.6,10.1 c-5.3,0-9.6-4.5-9.6-10.1s4.3-10.1,9.6-10.1C541.3,272.3,545.6,276.9,545.6,282.5z"/><path id="_193713408" class="st22" d="M665.6,335.2c0,6.3-5,11.4-11.3,11.4 c-6.2,0-11.3-5.1-11.3-11.4s5-11.4,11.3-11.4C660.6,323.7,665.6,328.8,665.6,335.2z"/><path id="_193706712" class="st22" d="M609,363.8c0,6.2-5.6,11.3-12.6,11.3 c-6.9,0-12.6-5-12.6-11.3c0-6.2,5.6-11.3,12.6-11.3S609,357.6,609,363.8z"/><path id="_193716456" class="st22" d="M680.6,374.3c0,5.8-4.4,10.5-9.9,10.5s-9.9-4.7-9.9-10.5 s4.4-10.5,9.9-10.5S680.6,368.5,680.6,374.3z"/><path id="_193711944" class="st22" d="M549.7,384.3c0,5.7-5.5,10.3-12.4,10.3S525,390,525,384.3 s5.5-10.3,12.4-10.3S549.7,378.6,549.7,384.3z"/><path id="_193715040" class="st22" d="M642.8,409.2c6.9-0.1,12.6,5.4,12.7,12.1 c-9.4,0-16.2,0-25.1,0.2C630.2,414.7,635.8,409.2,642.8,409.2L642.8,409.2z"/><path id="path1330" class="st23" d="M592.5,76.7l-24.9,17c1.4,1.5,2.3,3.4,2.5,5.6 c0.1,1.4,0,2.8-0.4,4.1l26.8,0.6L592.5,76.7z"/><path id="_193710720" class="st23" d="M528.6,87.3l3.4,30.6l17.9-12.2c-0.8-1.2-1.3-2.7-1.5-4.2 c-0.2-1.6,0.1-3.2,0.6-4.6L528.6,87.3z"/><path id="_193717008" class="st23" d="M570,99.3c0.6,5.7-3.8,10.8-9.7,11.4 c-6,0.6-11.3-3.5-11.9-9.1c-0.6-5.7,3.8-10.8,9.7-11.4C564.1,89.5,569.4,93.6,570,99.3z"/></g><g id="g1285"><g id="_193719384_1_"><path class="st24" d="M223.4,1035.5c1.5,1.5,38.2-40.7,39.5-39.5c1,1-37.2,42.5-36.4,43.3c1.3,1.3,36.2-39.1,37.6-37.6 c0.9,0.9-37.9,43.2-36.9,44.1c1.1,1.1,35.9-38.3,37.1-37.1c1.1,1.1-36,41-35,42c1.4,1.4,36.7-39,37.8-37.8 c0.7,0.7-28.7,34.1-27.8,35c1.2,1.2,28-30.1,29.1-29.1c0.5,0.5-21,26.8-20.5,27.3c0.8,0.8,20-21.8,20.9-20.9 c0.5,0.5-12.7,19-12.3,19.4c0.6,0.6,13.7-15.4,14.6-14.6c0.2,0.2-7.5,13.6-7.2,13.9c0.6,0.6,7.3-8.5,7.9-7.9 c0.1,0.1,0.6,6.8,0.7,7c0.4,0.4,2.2-2.8,2.5-2.5" id="path218"/><path class="st24" d="M159,981.7c0.4,0.4,4.7-5.7,5.2-5.2c0.2,0.2-4.3,10.3-4.1,10.5c0.6,0.6,11.1-12.2,11.6-11.6 c0.5,0.5-12.9,19.5-12.5,19.9c1,1,18.5-20,19.3-19.3c0.6,0.6-17.6,23.2-17.1,23.8c0.8,0.8,22.2-24.3,23.3-23.3 c0.7,0.7-24.5,29.3-23.7,30.1c1,1,30.1-32,31.1-31.1c0.8,0.8-33.1,38.2-32.3,39.1c1.4,1.4,38.4-41.5,39.9-39.9 c1,1-42.1,46.6-40.8,47.8c1.4,1.4,48.3-51,49.6-49.6c1.3,1.3-49.1,53.2-47.6,54.7c1.5,1.5,54.1-57.7,55.9-55.9 c1.5,1.5-57.1,61.5-55.8,62.9c1.9,1.9,61.8-65.6,63.7-63.7c1.7,1.7-67.2,71.3-65.6,72.9c2,2,70.6-74.4,72.5-72.5 c1.5,1.5-72.7,75.4-70.7,77.4c2.6,2.6,76.5-80.6,78.6-78.6c2,2-79.5,82.9-77.6,84.9c2.8,2.8,81.5-87.1,84.3-84.3 c2.2,2.2-80,82.6-78,84.6c2.4,2.4,84.8-90,87.4-87.4c2.5,2.5-83.7,86.2-81.5,88.5c2.8,2.8,79.9-85.5,82.7-82.7 c1.7,1.7-76.3,80.2-74.5,82c2.4,2.4,74.9-78.9,76.9-76.9c1.8,1.8-71.8,74.5-69.8,76.5c1.9,1.9,66.8-70.2,68.5-68.5 c1.3,1.3-60.6,65-59.2,66.5c2.3,2.3,60.4-63.4,61.9-61.9c1.7,1.7-55,59.5-53.6,60.8c0.4,0.4,1.3-2,1.7-1.7" id="path220"/></g><g id="_193712856_1_"><path class="st25" d="M252,843c0.3,0.3,1.1-1.8,1.4-1.4c0.1,0.1,0.9,5.4,1,5.5c0.5,0.5,1.6-2.5,2.1-2.1c0.1,0.1-0.3,6.7-0.1,6.9 c0.6,0.6,6.5-7.7,7.1-7.1c0.2,0.2-5.7,12-5.4,12.3c0.7,0.7,11.1-12.4,11.8-11.8c0.3,0.3-10.5,17.2-10.2,17.5 c0.7,0.7,13.4-14.9,14.2-14.2c0.4,0.4-11.2,18-10.7,18.4c0.8,0.8,16.7-18.1,17.4-17.4c0.6,0.6-17,23.2-16.5,23.6 c1.1,1.1,23-24.8,23.9-23.9c0.6,0.6-20.6,26.4-20.1,27c0.9,0.9,20.6-22.4,21.5-21.5c0.5,0.5-18.3,23.6-17.7,24.2 c1,1,16.4-17.9,17.2-17.2c0.4,0.4-11.4,17.7-11.1,18c0.5,0.5,8.1-9.6,8.8-8.8c0.2,0.2-2.2,9.3-2,9.4c0.4,0.4,1.8-2.4,2.1-2.1" id="path223"/></g><g id="_193713000_1_"><path class="st25" d="M185.5,838.8c0.5,0.5,6.2-7.1,6.6-6.6c0.4,0.4-8.7,15.4-8.4,15.7c0.8,0.8,14.8-16.1,15.4-15.4 c0.7,0.7-20.2,25.5-19.6,26.1c0.9,0.9,23.6-25.3,24.4-24.4c0.6,0.6-26.8,32.3-26.2,32.9c1.3,1.3,32.5-34.9,33.7-33.7 c0.8,0.8-35.3,40.4-34.5,41.2c1.7,1.7,40.5-43.7,42.1-42.1c1.1,1.1-46.1,50.9-44.9,52.2c1.6,1.6,50.1-53.6,51.9-51.9 c1.7,1.7-58.8,63.5-57.4,64.9c1.7,1.7,63.9-67.2,65.5-65.5c1.7,1.7-70.8,74.6-68.9,76.6c1.8,1.8,66.2-70.3,68.2-68.2 c2.2,2.2-72.4,75.8-70.5,77.7c2.4,2.4,70.6-74.8,72.7-72.7c2.1,2.1-76.5,79.5-74.6,81.4c2.2,2.2,75.2-79.4,77.3-77.3 c2.3,2.3-83.7,86.4-81.4,88.7c2.4,2.4,80.9-85.9,83.4-83.4c2.2,2.2-89.6,92.2-87,94.7c2.3,2.3,85.1-89.4,87.3-87.3 c2.6,2.6-92.5,94.8-89.8,97.5c2.1,2.1,90.2-95.2,92.7-92.7c2.3,2.3-94.5,96.8-91.8,99.5c2.5,2.5,89.8-95.7,92.8-92.8 c1.9,1.9-85.3,88-83.4,90c2.9,2.9,83.2-87.6,85.4-85.4c1.8,1.8-81.3,84-79.3,86.1c2,2,79.7-83.6,81.6-81.6 c1.9,1.9-75.6,78.8-73.5,80.8c2.7,2.7,74.2-79.5,76.8-76.8c1.6,1.6-70.4,73.9-68.3,76c2.2,2.2,68.3-71.6,69.9-69.9 c1.5,1.5-62.3,66.7-61,68c1.8,1.8,60.1-63.2,61.6-61.6c1.6,1.6-56,59.9-54.3,61.7c1.6,1.6,54.4-58.2,56.3-56.3 c1.1,1.1-48.7,53.9-47.5,55.2c1.6,1.6,47.3-50.7,49-49c0.9,0.9-42.4,46.8-41.3,47.9c1.7,1.7,41.6-44.9,43.3-43.3 c0.9,0.9-35.6,41.4-34.6,42.4c1.5,1.5,34.6-37.1,35.9-35.9c0.8,0.8-29.1,34.4-28.3,35.2c1.1,1.1,28.1-30.4,29.2-29.2 c0.5,0.5-23,29.3-22.4,29.9c1,1,23.7-25.5,24.6-24.6c0.5,0.5-16.3,22.2-15.8,22.6c0.8,0.8,17.9-19.3,18.6-18.6 c0.4,0.4-12.6,19-12.2,19.3c0.6,0.6,12.8-13.9,13.4-13.4c0.2,0.2-5.7,12.2-5.5,12.5c0.5,0.5,6.8-7.8,7.3-7.3 c0.1,0.1-0.1,7.1,0,7.3c0.3,0.3,1.8-2.6,2.2-2.2" id="path226"/></g><g id="_193057120_1_"><path class="st25" d="M132.4,841.7c0.3,0.3,1.2-2.1,1.6-1.6c0.2,0.2-1.8,9-1.6,9.1c0.5,0.5,8.7-9.7,9.2-9.2 c0.4,0.4-10,16.2-9.6,16.6c0.8,0.8,15.6-17,16.3-16.3c0.5,0.5-16,22.6-15.4,23.1c0.8,0.8,22.5-24.5,23.5-23.5 c0.7,0.7-25.1,31-24.2,31.9c1,1,30.7-32.9,31.8-31.8c1,1-32.3,38-31.5,38.9c1.2,1.2,38.6-41.7,40.2-40.2c1,1-32.7,38.5-31.7,39.5 c1.3,1.3,29.9-32.5,31.2-31.2c0.6,0.6-22.1,28.5-21.6,29.1c0.8,0.8,18.2-20.2,19.2-19.2c0.4,0.4-13.7,20-13.3,20.3 c0.7,0.7,12.1-13.1,12.6-12.6c0.2,0.2-3.9,11-3.7,11.2c0.4,0.4-0.1-0.4,0.2-0.2" id="path229"/></g><g id="_193716984_1_"><path class="st1" d="M129.2,731.8c0.4,0.4,1.3-2,1.6-1.6c0.2,0.2-2.4,9.6-2.2,9.8c0.6,0.6,9.5-10.6,10-10 c0.3,0.3-10.3,16.9-10,17.2c0.9,0.9,16.5-18.2,17.4-17.4c0.6,0.6-15.7,21.9-15.1,22.5c1,1,22.7-24.5,23.6-23.6 c0.6,0.6-24.9,30-24.1,30.8c1.2,1.2,29-31,30-30c0.8,0.8-27.6,32.9-26.8,33.7c1.2,1.2,32.9-34.9,33.9-33.9 c0.9,0.9-35.7,40.8-34.8,41.7c1.3,1.3,39.1-42.3,40.7-40.7c1.2,1.2-37.5,42.1-36.4,43.3c1.6,1.6,43.2-46,44.6-44.6 c1.3,1.3-45.2,49.8-44.2,50.8c1.8,1.8,48.8-51.5,50.2-50.2c1.2,1.2-49.7,53.8-48.3,55.2c1.6,1.6,54.2-57.3,55.8-55.8 c1.3,1.3-52,55.7-50.6,57c2,2,57.3-60.6,58.9-58.9c1.5,1.5-58.1,62.4-56.8,63.8c2.3,2.3,61.4-65.6,63.5-63.5 c1.5,1.5-62.1,66.6-60.8,67.9c2,2,65.9-70.1,68-68c1.4,1.4-66.1,70.1-64.7,71.5c1.9,1.9,69.7-73.6,71.6-71.6 c1.9,1.9-68,71.2-66.3,72.9c2.7,2.7,74-78.4,76.2-76.2c2,2-76.1,79.9-74.5,81.5c2.1,2.1,77.9-82.3,80.1-80.1 c1.6,1.6-76.3,80-74.7,81.6c2,2,82.8-87,84.9-84.9c2.5,2.5-83.6,86-81.4,88.3c2.9,2.9,87.3-91.6,89.4-89.4 c2.2,2.2-84.7,87.6-82.8,89.4c3.1,3.1,87.1-93,90-90c2,2-88.4,91.7-86.4,93.7c3.2,3.2,93.5-99,96.3-96.3 c2.8,2.8-92.4,94.3-90,96.7c3.2,3.2,95.6-101.1,98.3-98.3c2.7,2.7-96.5,98.3-93.8,100.9c2.7,2.7,92.2-97.4,94.8-94.8 c2.7,2.7-90.6,93-87.9,95.7c2.5,2.5,89.3-93.8,91.5-91.5c2.5,2.5-87.3,88.9-84.7,91.4c2.2,2.2,84-89.5,86.7-86.7 c2,2-83.6,86.6-81.2,89c2.3,2.3,80.2-85.6,82.9-82.9c2.3,2.3-78.8,81.9-76.7,84c2.5,2.5,73-77,75-75c1.7,1.7-67.6,71-65.7,72.8 c2.2,2.2,64.6-69.3,66.9-66.9c1.7,1.7-59.6,64.4-58.2,65.9c1.9,1.9,53.4-57.3,55.4-55.4c1,1-48.2,52.8-46.8,54.1 c1.7,1.7,43.5-46.2,44.8-44.8c1.1,1.1-37.3,42.8-36.3,43.7c1.3,1.3,28.8-30.5,29.7-29.7c0.4,0.4-13.5,19.9-13,20.4 c0.3,0.3,0-0.6,0.3-0.3" id="path232"/></g><g id="path1221_1_"><path class="st13" d="M116.9,746.2c0.3,0.3,0-0.5,0.2-0.2" id="path235"/><path class="st13" d="M80.4,759.8c0.8,0.8,17.2-18.9,18-18c0.6,0.6-21.4,27.2-20.8,27.7c0.9,0.9,29-31.3,30.2-30.2 c0.9,0.9-29.9,35.4-28.9,36.3c1.1,1.1,38.4-40.8,39.6-39.6c0.9,0.9-34.2,39.7-33.1,40.7c1.2,1.2,29.1-31.4,30.3-30.3 c0.8,0.8-25.2,31.6-24.7,32.1c0.6,0.6,8.1-9.2,8.7-8.7c0.2,0.2-3.5,9.6-3.3,9.8c0.6,0.6,5-6,5.5-5.5c0.1,0.1,1.8,4.8,1.9,4.9 c0.5,0.5,2.7-3.5,3.1-3.1c0.1,0.1,3.5,3.6,3.6,3.7c0.5,0.5,1.7-2.5,2.1-2.1c0.1,0.1,4.9,1.5,5,1.6c0.4,0.4,1.8-2.5,2.1-2.1" id="path237"/></g><g id="path1215_1_"><path class="st13" d="M145.2,698.1c0.3,0.3,0.9-1.4,1.2-1.2c0.3,0.3-12.3,18.3-11.9,18.7c1.2,1.2,26.3-28.1,27.2-27.2 c0.6,0.6-21.6,27.6-21.1,28.1c1.4,1.4,31-33.8,32.4-32.4c0.6,0.6-25,30.1-24.3,30.8c1,1,32-34.7,33.3-33.3 c0.8,0.8-28.3,33.7-27.7,34.4c1.4,1.4,35.4-37.5,36.5-36.5c1,1-29.8,35.8-29.1,36.5c1.5,1.5,37.9-40.1,39-39 c0.9,0.9-31.3,36.7-30.6,37.5c1.1,1.1,36.3-39.1,37.7-37.7c1,1-32.8,37.5-31.9,38.4c1.1,1.1,36.9-39.1,38-38 c0.7,0.7-31.4,36.6-30.6,37.4c1.4,1.4,36.2-39.3,37.7-37.7c0.9,0.9-33.8,38.4-32.8,39.4c1.4,1.4,38.4-41,39.7-39.7 c0.7,0.7-31.2,37.2-30.5,37.9c1.1,1.1,33.9-36.3,35.1-35.1c0.9,0.9-30.1,35.8-29.2,36.7c1.1,1.1,36.3-38.5,37.4-37.4 c0.8,0.8-29,34.1-28.1,35c1.3,1.3,30.9-33.8,32.4-32.4c0.8,0.8-24.9,30.4-24.1,31.2c1,1,27.5-30,28.7-28.7 c0.6,0.6-23.3,28.6-22.6,29.3c1.2,1.2,28.9-31.1,30-30c0.8,0.8-24.5,29.3-23.7,30.1c1.2,1.2,24.3-26.7,25.5-25.5 c0.5,0.5-17.3,24.2-16.9,24.6c0.8,0.8,21.1-23.2,22.2-22.2c0.4,0.4-13.3,19.6-12.9,20c0.9,0.9,18.4-19.7,19-19 c0.3,0.3-12.2,18-11.9,18.3c0.7,0.7,14.3-15.7,15-15c0.3,0.3-6.7,13.3-6.5,13.6c0.5,0.5,8.9-9.9,9.4-9.4c0.2,0.2-1.4,7.6-1.2,7.7 c0.4,0.4,3.1-4.1,3.6-3.6c0.1,0.1,3.4,3.7,3.5,3.8c0.3,0.3,1.3-2,1.6-1.6" id="path240"/></g><g id="_191680448_1_"><path class="st1" d="M207.7,704.7c0.6,0.6,8.4-9.5,8.9-8.9c0.1,0.1-2,8.8-1.8,9c0.5,0.5,7-7.9,7.5-7.5c0.2,0.2-2.8,9.3-2.6,9.5 c0.6,0.6,6.7-7.7,7.2-7.2c0.1,0.1,1,6,1.1,6.2c0.3,0.3,1.8-2.6,2.2-2.2" id="path243"/></g><path id="path1221" class="st4" d="M124.9,728.4 c-36.4,9.3-54.1,26.8-53.3,52.5c14.4,9.7,34,9,55.6-2.3c0.1-0.1,0.1-0.1,0.2-0.2c-1.4-3.7-2.4-7.6-3.2-11.7 c-0.8,2.4-5.8,3.3-7.8,3.3c-6.2,0-11.3-4.2-11.3-9.4s5-9.4,11.3-9.4c2.3,0,4.5,0.6,6.3,1.6c0,0,0.1,0,0.1,0 c-0.1-5.1,0.1-10.5,0.8-16.1c0.8-2.7,1.7-5.2,2.7-7.7C125.8,728.8,125.4,728.6,124.9,728.4z"/><path id="_193720296" class="st4" d="M225.4,1146.9l40.5-19.5 l-9.8-76.3"/><path id="_193720176" class="st4" d="M181.1,1061.4l-3.5,74.8 l-50.2,16.5"/><path id="_193719384" class="st4" d="M261.7,961.8l-109,10.1l0.7,92.5l55.5-6l7.5-16.5l6,15.8l62.3-12L261.7,961.8z"/><path id="_193720104_1_" class="st4" d="M275.4,1011.8l-32,5.4l-4.9-53.2"/><path id="_193719840" class="st4" d="M179.2,969.5l1.2,55.9l-27.3,0.8 v0"/><path id="_193719864" class="st4" d="M288.4,859.6l92.5,20.3"/><path id="_193716432" class="st4" d="M376.1,857.4L353.9,874l18.4,22.4"/><path id="_193712808" class="st4" d="M359.6,852.1l-5.7,21.9l-3.3,30.6"/><path id="_191679848" class="st4" d="M129.4,846.1l-95.2-8.5"/><path id="_193711824" class="st4" d="M29.7,822.9l28.6,16l-15.9,17h0.7"/><path id="_189534168" class="st4" d="M61.9,816.1l-5.3,42.7"/><path id="_193713000" class="st4" d="M240.4,831.9l-0.4-8.6 c-15.3,4.8-33.6,5.1-54.9,0.6l-3.2,8.8l-12.8,49.5l-27,90.8l137.3-12.8l2.3,0.8l-21.8-74.3L240.4,831.9z"/><path id="_193057120" class="st4" d="M181.9,832.6l-56.2,1.5l0.8,51 l42.7-3L181.9,832.6z"/><path id="_193712856" class="st4" d="M240.4,831.9l57,12l-6.8,45.8 l-30.8-3L240.4,831.9z"/><path id="_193175736" class="st4" d="M227.4,885.8c18.3-0.2,22.1-11.5,11.2-33.7l-27.8,2.3 C210.8,875.8,216.3,886.3,227.4,885.8z"/><path id="_193720344" class="st11" d="M303.4,743.4c-2,0-3.8,0.4-5.3,1.1c-0.3,3.8-1,7.8-2,11.8c1.9,1.3,4.5,2.1,7.3,2.1 c5.8,0,10.5-3.4,10.5-7.5S309.2,743.4,303.4,743.4z"/><path id="_193716984" class="st4" d="M289.7,710.1c-41.7,8.9-86.3,13-134,12.3c-13.7-1.1-23.1,0.1-28.1,3.4 c-1.6,3.5-2.9,7.1-4,10.9c-4.7,39.6,10.5,67.3,45.6,83.1c51.3,15,87.3,6.5,108-25.5C300.2,761.8,304.4,733.7,289.7,710.1 C289.7,710.1,289.7,710.1,289.7,710.1z"/><path id="_193715064" class="st4" d="M154.1,748.6c13.9,58.8,98.9,56.5,106.5,2.3"/><path id="_191680928" class="st18" d="M224.2,735.9c0.6,3.3-0.8,6.2-3,6.6 c-2.2,0.4-4.5-1.9-5.1-5.2c-0.6-3.3,0.8-6.2,3-6.6C221.3,730.3,223.6,732.7,224.2,735.9z"/><path id="_193711560" class="st18" d="M197.3,737.4c-0.6,3.3,0.8,6.2,3,6.6 c2.2,0.4,4.5-1.9,5.1-5.2c0.6-3.3-0.8-6.2-3-6.6C200.2,731.8,197.9,734.2,197.3,737.4z"/><path id="_191679824" class="st4" d="M257.9,715.9c6.8,8.2,11.5,13.9,13.9,17.3"/><path id="_191679800" class="st4" d="M273,714.7c4,5.7,10.4,11.9,19.1,18.4"/><path id="_193716744" class="st4" d="M285.1,711.1c9,8.8,19.9,14.1,32.6,16.1"/><path id="_193720152" class="st4" d="M295.1,708.9c18.1,4,31.1,6.1,39.2,6.3"/><path id="_193716096" class="st4" d="M155,722.3c-6.4,8-9,15.5-7.9,22.5"/><path id="_193707768" class="st4" d="M144.6,722c-3.9,6.8-5.7,12.8-5.2,18"/><path id="_193716768" class="st4" d="M136.8,722.7 c-6.8,10.4-8.8,22.6-6.2,36.2"/><path id="path1215" class="st4" d="M155.6,722.4L155.6,722.4 c49.8,0.8,96.3-3.7,139.5-13.5c-8.9-20.8-31.5-41.9-84-38.6c-42.6,3-71.4,22.4-86.2,58.1C128.6,723.1,138.9,721.1,155.6,722.4z"/><path id="_191680448" class="st4" d="M241.9,709.6c-14.9,4.5-29.4,5-43.5,1.5c5.1-10.9,12.1-18.1,21-21.7c7.7-2.8,14,0.5,18.8,9.8 C240.6,706.1,241.9,709.6,241.9,709.6L241.9,709.6z"/><path id="_193174392" class="st11" d="M116.4,751.3c-6.2,0-11.3,4.2-11.3,9.4s5,9.4,11.3,9.4c2.9,0,5.5-0.9,7.5-2.4 c0.2-0.1,0.3-0.2,0.4-0.3c-0.9-4.6-1.4-9.4-1.5-14.4c0,0-0.1,0-0.1,0C120.8,751.9,118.7,751.3,116.4,751.3z"/><path id="_193716720" class="st4" d="M124.9,728.4 c-12.9,11.5-21.7,20.6-27.8,28.4"/></g><g id="g1545"><path id="_193492048" class="st4" d="M756,1105.7l123-77.7"/><path class="st26" d="M762.7,1101c-12.6-9.5-29.8-1.9-40.5,9.8c-8.4,11,20.5,30,30.4,29.6c6.3-0.2,11.2-0.9,15-5.2h0 C776.3,1123.5,774.6,1112.1,762.7,1101z M742,1124.6c-18.6-14.7,8.2-19.4,14.4-14.2C765.1,1117.6,758,1137.2,742,1124.6z" id="path280"/><g id="_193490272_1_"><path class="st27" d="M1020.8,1069.7c0.7,0.7,14.8-16.1,15.4-15.4c0.4,0.4-18,24.3-17.4,24.9c1.1,1.1,25.9-28.3,27.1-27.1 c0.6,0.6-25.4,31.4-24.7,32.1c1.3,1.3,31.4-33.9,32.7-32.7c0.9,0.9-34.7,40.1-33.6,41.1c1.3,1.3,38.6-41,39.8-39.8 c1.1,1.1-38.5,43-37.4,44.1c1.3,1.3,40.7-43,41.8-41.8c1,1-41.5,46.1-40.4,47.1c1.7,1.7,45-48.3,46.7-46.7 c1.4,1.4-45.7,50.1-44.3,51.5c1.4,1.4,46.1-49.1,47.6-47.6c1.2,1.2-45.6,50.2-44.6,51.2c1.7,1.7,46.4-49.7,48.1-48.1 c1,1-44.2,49-42.8,50.4c1.3,1.3,46.1-49.1,47.6-47.6c1.3,1.3-44.9,49.1-43.7,50.4c1.4,1.4,44.5-48.2,46.4-46.4 c1.2,1.2-43.2,47.9-41.8,49.2c1.7,1.7,41.8-45.2,43.5-43.5c1.2,1.2-40.4,45-39.2,46.3c1.6,1.6,42.5-44.9,43.7-43.7 c1,1-39.3,44.6-38.3,45.6c1.5,1.5,37.4-40,38.7-38.7c0.9,0.9-33.9,39.4-33,40.3c1,1,34.5-36.7,35.6-35.6 c0.7,0.7-28.6,34-27.7,34.9c0.9,0.9,27.6-29.6,28.6-28.6c0.8,0.8-22.4,27.9-21.9,28.5c0.9,0.9,18.4-20.3,19.3-19.3 c0.3,0.3-6.7,13.5-6.4,13.8c0.3,0.3,2.3-3,2.6-2.6" id="path282"/></g><g id="_193491280_1_"><path class="st27" d="M897.2,1067.2c0.6,0.6,13.2-14.6,13.9-13.9c0.4,0.4-17.5,23.3-17,23.9c0.9,0.9,23.7-25.9,24.8-24.8 c0.8,0.8-25.4,30.8-24.7,31.4c1,1,30.8-32.7,31.8-31.8c0.9,0.9-32,37.5-31,38.4c1.2,1.2,37.8-39.9,38.9-38.9 c1,1-37.6,41.8-36.4,43c1.5,1.5,40.3-43.6,42-42c0.9,0.9-41.5,45.5-40.3,46.7c1.8,1.8,41.8-44.9,43.3-43.3 c1.2,1.2-42.8,48.1-41.6,49.4c1.6,1.6,44.7-48,46.4-46.4c1.1,1.1-44.2,48.5-43,49.6c1.3,1.3,47.1-50.3,48.7-48.7 c1,1-45.9,50.4-44.8,51.5c1.6,1.6,46.1-49.3,47.7-47.7c1.4,1.4-46.8,50.5-45.4,51.8c1.6,1.6,47.9-51.3,49.6-49.6 c1.2,1.2-45.4,50.5-44.3,51.6c1.7,1.7,45.2-48.3,46.8-46.8c1.1,1.1-44.1,48.9-43.2,49.9c1.7,1.7,44.1-46.6,45.3-45.3 c1.2,1.2-39.9,44.7-38.6,45.9c1.1,1.1,38.4-41.3,39.9-39.9c1.1,1.1-36.9,42.2-35.8,43.2c1.1,1.1,35.5-37.5,36.5-36.5 c0.8,0.8-30.2,35.3-29.3,36.2c1.3,1.3,28.6-31.3,30-30c0.7,0.7-22.1,27.9-21.4,28.6c0.8,0.8,22.4-24.1,23.2-23.2 c0.4,0.4-13.9,19.7-13.4,20.2c0.6,0.6,9.5-10.8,10.2-10.2" id="path285"/></g><g id="_193485640_1_"><path class="st28" d="M1036.7,1046.9c1.2,1.2,42.2-44.7,43.5-43.5c0.9,0.9-30.3,36-29.4,36.8c1.3,1.3,36.2-38.8,37.5-37.5 c0.7,0.7-29.7,34.5-28.8,35.4c1.3,1.3,34.1-36.8,35.5-35.5c0.9,0.9-28.4,33.5-27.7,34.2c1.1,1.1,28.3-30.5,29.4-29.4 c0.6,0.6-24.2,29.9-23.5,30.7c0.8,0.8,24.3-26.3,25.3-25.3c0.5,0.5-19,25.2-18.4,25.8c0.8,0.8,16.2-18.1,17.1-17.1 c0.4,0.4-14.6,20.8-14.2,21.2c0.7,0.7,13.9-15.4,14.6-14.6c0.3,0.3-9.8,16.5-9.5,16.8c0.6,0.6,9-10,9.5-9.5c0.2,0.2-4.2,10.9-4,11 c0.5,0.5,4-5.1,4.6-4.6c0.1,0.1-2.1,8.2-1.9,8.4c0.4,0.4,1.2-2,1.6-1.6c0.1,0.1-0.2,7.3-0.1,7.4c0.3,0.3,0.7-1.4,1.1-1.1" id="path288"/><path class="st28" d="M912.8,1044.9c1.3,1.3,41.5-44.1,42.8-42.8c1,1-30.4,35.7-29.5,36.6c1.4,1.4,35.1-37.2,36.1-36.1 c0.7,0.7-30.1,35.3-29.5,36c1.4,1.4,33.8-36.2,35-35c0.8,0.8-25.6,31.7-24.8,32.5c1.4,1.4,30.2-33,31.6-31.6 c0.6,0.6-26.1,32.1-25.3,32.9c1,1,32.5-35.2,33.8-33.8c0.7,0.7-28.9,33.8-28,34.7c1.3,1.3,32.9-35.6,34.3-34.3 c1,1-32.3,37.4-31.4,38.3c1.2,1.2,38.8-40.9,39.9-39.9c0.9,0.9-35.9,41.3-35.1,42.1c1.2,1.2,39.9-43.1,41.5-41.5 c1,1-39.6,44.4-38.7,45.4c1.6,1.6,42.7-45.3,44-44c1,1-39.1,44.4-38.1,45.4c1.5,1.5,44.3-47.4,45.8-45.8 c1.3,1.3-44.3,49.7-43.3,50.7c1.3,1.3,51.1-54.3,52.7-52.7c1.5,1.5-52,56.6-50.5,58.2c2,2,55.7-58.8,57.3-57.3 c1.5,1.5-54.4,59.4-53.2,60.6c2.1,2.1,57.2-60.6,58.9-58.9c1.5,1.5-60.3,64.6-58.6,66.3c2.1,2.1,67.2-70.4,68.8-68.8 c1.8,1.8-62,66.8-60.5,68.2c2.4,2.4,65.8-69.4,67.6-67.6c1.5,1.5-62.6,66.7-60.9,68.4c2.1,2.1,65.5-69.6,67.5-67.5 c1.5,1.5-63.2,66.9-61.8,68.3c2.4,2.4,66.6-69.9,68.3-68.3c1.6,1.6-62.3,66.4-60.8,67.9c2.3,2.3,66.3-69.6,67.9-67.9" id="path290"/><path class="st28" d="M885.6,1004.6c0.4,0.4,0-0.6,0.3-0.3c0.2,0.2-1.3,8.6-1.1,8.8c0.5,0.5,8.8-10.1,9.5-9.5 c0.3,0.3-7.7,14.2-7.5,14.4c0.7,0.7,12.9-14.4,13.6-13.6c0.4,0.4-15.6,21.4-15.2,21.8c1,1,21-23.2,22.1-22.1 c0.7,0.7-21.2,26.3-20.5,27c1.3,1.3,25.7-27.9,26.8-26.8c0.8,0.8-29.4,34-28.4,34.9c1.3,1.3,35.3-38.3,36.8-36.8 c1,1-37.5,42.8-36.5,43.8c1.4,1.4,42-45.1,43.6-43.6c1.3,1.3-45.5,49.6-44.3,50.8c1.4,1.4,49.7-53.3,51.5-51.5 c1.4,1.4-52.3,57-51.1,58.2c1.8,1.8,54.4-57.7,56-56c1.5,1.5-55.5,60.1-54.3,61.2c2.2,2.2,59.2-63.2,61.2-61.2" id="path292"/></g><g id="path1513_1_"><path class="st29" d="M878.2,885.2c0.5,0.5,1.6-2.5,2.1-2.1c0.1,0.1,0,7.3,0.1,7.5c0.4,0.4,6.9-8.1,7.5-7.5 c0.2,0.2-3.5,9.9-3.3,10.1c0.5,0.5,6.9-7.9,7.4-7.4c0.2,0.2-3.5,9.5-3.3,9.7c0.6,0.6,4.9-5.9,5.4-5.4c0.1,0.1-0.8,7-0.6,7.1 c0.6,0.6,5.4-6.5,5.9-5.9c0.2,0.2-0.9,8.1-0.8,8.2c0.4,0.4,1.7-2.5,2.1-2.1c0.1,0.1,2.6,4.4,2.7,4.5c0.3,0.3,1.9-2.6,2.3-2.3" id="path295"/></g><g id="path1523_1_"><path class="st29" d="M837.5,923.9c0.7,0.7,12.6-14.3,13.5-13.5c0.4,0.4-10.2,17.1-9.8,17.5c0.7,0.7,17.2-18.5,17.9-17.9 c0.5,0.5-13.4,20.1-13.1,20.5c0.8,0.8,18.8-20.7,19.8-19.8c0.5,0.5-14.2,20.4-13.9,20.8c1,1,18.2-20.2,19.2-19.2 c0.5,0.5-14,20.4-13.5,20.9c0.8,0.8,21.3-23.2,22.3-22.3c0.5,0.5-16.4,22.2-15.9,22.7c0.7,0.7,20.3-22.3,21.3-21.3 c0.4,0.4-17,23.5-16.5,24.1c0.8,0.8,20.1-21.6,20.9-20.9c0.5,0.5-16.2,21.7-15.7,22.2c0.9,0.9,20.7-22.3,21.5-21.5 c0.4,0.4-14.6,21.5-14.2,21.9c0.9,0.9,19.5-20.9,20.2-20.2c0.3,0.3-13.6,19.3-13.1,19.7c0.7,0.7,18.3-19.8,19.1-19.1 c0.4,0.4-9.2,15-8.8,15.3c0.6,0.6,10.6-11.8,11.2-11.2c0.2,0.2-2,8.9-1.8,9.1c0.4,0.4,3.3-4,3.6-3.6" id="path298"/><path class="st29" d="M846.2,912c0.4,0.4,2.4-3.1,2.8-2.8" id="path300"/></g><g id="path1505_1_"><path class="st29" d="M917.9,932.7c0.5,0.5,6.2-7,6.6-6.6c0.3,0.3-7.5,14.3-7.2,14.7c0.7,0.7,11.3-12.8,12-12 c0.5,0.5-14,20.6-13.5,21.1c0.9,0.9,14.5-15.9,15.2-15.2c0.4,0.4-12.8,18.7-12.5,19.1c0.7,0.7,15-16.3,15.7-15.7 c0.4,0.4-13.5,19.1-13.1,19.5c0.6,0.6,14-15.1,14.6-14.6c0.3,0.3-4.6,12-4.4,12.2c0.6,0.6,5.3-6.3,5.8-5.8" id="path303"/></g><g id="path1503_1_"><path class="st29" d="M941.9,960.9c1.3,1.3,31.8-34.4,33.1-33.1c0.7,0.7-26,32.1-25.2,32.9c1,1,31.5-33.9,32.7-32.7 c0.8,0.8-26.4,32.4-25.8,33c1.3,1.3,31.6-33.9,32.8-32.8c0.8,0.8-23.5,29.5-22.9,30.1c1,1,30.1-32.4,31.3-31.3 c0.7,0.7-26.5,32.6-25.7,33.4c1,1,31.5-34.1,32.8-32.8c0.6,0.6-24.8,30.6-24,31.4c1,1,31.9-34.3,33.1-33.1 c0.8,0.8-26.4,32.1-25.6,33c1,1,32.3-34.5,33.4-33.4c0.8,0.8-28.8,33.7-27.8,34.6c1,1,34.7-36.8,35.7-35.7 c0.9,0.9-28.7,33.9-28.1,34.5c1.1,1.1,32-34,33-33c0.7,0.7-25.4,31.6-24.7,32.3c1,1,32.5-34.8,33.7-33.7 c0.8,0.8-28.2,33.3-27.5,34c1.2,1.2,33.7-35.8,34.7-34.7c0.8,0.8-28.1,33.7-27.3,34.5c1,1,31.8-34.3,33.1-33.1 c0.7,0.7-26.3,32.4-25.7,33c1.2,1.2,27.1-29.3,28.2-28.2c0.6,0.6-19.6,26.2-19.1,26.8c1,1,18.2-19.7,19-19 c0.3,0.3-12,18.8-11.6,19.2c0.8,0.8,12.7-13.9,13.3-13.3c0.3,0.3-6,12.9-5.7,13.2c0.5,0.5,3.9-5,4.4-4.4c0.1,0.1,1.3,6.2,1.4,6.3 c0.3,0.3,0.4-1,0.7-0.7" id="path306"/><path class="st29" d="M951.1,933.1c0.5,0.5,2.6-3.5,3-3c0.2,0.2-2.1,8.5-1.9,8.6c0.6,0.6,8.2-9.3,8.8-8.8" id="path308"/></g><path id="path1513" class="st4" d="M914.2,899.6 c-6.2-15.6-15-23.5-26.4-23.5c-1.2,0-2.4,0.1-3.6,0.2c-13.6,5.4-18.1,11.5-13.5,18.4c6.6,4.9,10.7,8.2,12.4,9.7 c10.8,3.3,22.3,6,34.5,8.2C918,909.1,916.9,904.8,914.2,899.6z"/><path id="path1523" class="st4" d="M917.6,912.8 c-12.2-2.2-23.7-5-34.5-8.2c-30.4-4.2-48.7-3.2-55.1,3c0,0.1-0.1,0.3-0.1,0.4c7,0.1,12.6,4.1,12.6,9c0,4.9-5.6,8.9-12.6,9 c2.2,5.6,7,9.5,14.4,11.6c21.6,9.9,44.9,8.9,69.8-3c4.1-4.2,5.8-9.3,5.3-15.4L917.6,912.8z"/><path id="path1505" class="st4" d="M908.2,956.3 c1.7-7.7,2.9-15,3.8-21.8c4.1-4.2,5.8-9.3,5.3-15.4c8.6-3.5,15.4-1.5,20.2,6c6.7,11.1,9,19.5,6.9,25c-4.9,8.7-13.8,13.2-26.6,13.6 C912.4,963.3,909.2,960.8,908.2,956.3L908.2,956.3z"/><path id="_193493872" class="st4" d="M1058.4,996l2.3-32.1"/><path id="_193493776" class="st4" d="M1031.9,996l2.6-31.3"/><path id="_193489288" class="st4" d="M952.7,996l0.1-29.1"/><path id="_193490032" class="st4" d="M928.2,996l3.7-28.5"/><path id="_193485640" class="st4" d="M879,996v81.8h9.4c4.5-19.3,22.1-33.8,43.1-33.8c21,0,38.6,14.4,43.1,33.8h39.2 c4.8-19,22.2-33,42.9-33c20.8,0,38.2,14,42.9,33h5.1V996H879z"/><path id="path1489" class="st30" d="M1066.9,928.9 c12.7-6.3,21.9-18.3,27.8-36c0.8-9.5-2.1-10.5-8.6-3c-5.6,13.1-13.4,21.9-23.6,26.2L1066.9,928.9z"/><path id="_193489240" class="st31" d="M895.1,920.2c0,2.5-1.8,4.5-3.9,4.5c-2.2,0-3.9-2-3.9-4.5 c0-2.5,1.8-4.5,3.9-4.5C893.3,915.7,895.1,917.7,895.1,920.2z"/><path id="_193493560" class="st31" d="M908.6,925.4c0,2.5-1.8,4.5-3.9,4.5c-2.2,0-3.9-2-3.9-4.5 c0-2.5,1.8-4.5,3.9-4.5C906.8,920.9,908.6,922.9,908.6,925.4L908.6,925.4z"/><path id="_193493200" class="st32" d="M840.5,916.9c0,5-5.8,9-12.8,9c-7.1,0-12.8-4-12.8-9 c0-5,5.8-9,12.8-9C834.7,907.9,840.5,911.9,840.5,916.9z"/><path id="_193490272" class="st4" d="M1101,1088.3c0,24-19.8,43.5-44.2,43.5 s-44.2-19.5-44.2-43.5s19.8-43.5,44.2-43.5S1101,1064.2,1101,1088.3z"/><path id="_193489456" class="st33" d="M1070.2,1089c0,7.9-6.4,14.2-14.2,14.2 c-7.9,0-14.2-6.4-14.2-14.2c0-7.9,6.4-14.2,14.2-14.2C1063.9,1074.8,1070.2,1081.2,1070.2,1089z"/><path id="_193491280" class="st4" d="M975.7,1087.5c0,24-19.8,43.5-44.2,43.5 s-44.2-19.5-44.2-43.5s19.8-43.5,44.2-43.5S975.7,1063.5,975.7,1087.5z"/><path id="_193485832" class="st33" d="M947.2,1091.3c0,9.1-6.4,16.5-14.2,16.5 c-7.9,0-14.2-7.4-14.2-16.5c0-9.1,6.4-16.5,14.2-16.5C940.9,1074.8,947.2,1082.2,947.2,1091.3z"/><path id="path1503" class="st4" d="M917.6,967.9l150-4.1 l-0.8-34.9l-4.5-12.8l-124.9,9c6.7,11.1,9,19.5,6.9,25c-4.9,8.7-13.8,13.2-26.6,13.6L917.6,967.9z"/></g></svg>